<svg width="86" height="86" viewBox="0 0 86 86" fill="none" xmlns="http://www.w3.org/2000/svg">
<g clip-path="url(#clip0)">
<path d="M82.0475 37.7011H67.1494V24.0628H79.3547C81.5337 24.0628 83.3073 22.29 83.3073 20.1103V3.95251C83.3073 1.77351 81.5337 0 79.3547 0H52.4253C50.2456 0 48.4728 1.77351 48.4728 3.95251V10.7717H40.2206V6.64526C40.2206 2.98145 37.2392 0 33.5747 0H6.64526C2.98145 0 0 2.98145 0 6.64526V82.0475C0 84.2265 1.77351 86 3.95251 86H36.2675C38.4471 86 40.22 84.2265 40.22 82.0475V63.1103H45.7794V82.0475C45.7794 84.2271 47.5529 86 49.7319 86H82.0475C84.2265 86 86 84.2265 86 82.0475V41.6536C86 39.474 84.2265 37.7011 82.0475 37.7011ZM83.4805 41.6536V48.4728H72.2653C72.4391 48.0279 72.5356 47.545 72.5356 47.0398C72.5356 44.8601 70.7621 43.0866 68.5831 43.0866C66.4034 43.0866 64.6299 44.8601 64.6299 47.0398C64.6299 47.545 64.7264 48.0279 64.9002 48.4728H61.7639V44.3464C61.7639 43.6509 61.1997 43.0866 60.5042 43.0866H52.4253C51.7298 43.0866 51.1655 43.6509 51.1655 44.3464V48.4728H48.2995V41.6536C48.2995 40.863 48.9426 40.2206 49.7325 40.2206H82.0475C82.8375 40.2206 83.4805 40.863 83.4805 41.6536ZM67.1494 47.0391C67.1494 46.2491 67.7924 45.6061 68.5824 45.6061C69.3731 45.6061 70.0161 46.2491 70.0161 47.0391C70.0161 47.8298 69.3731 48.4721 68.5824 48.4721C67.7924 48.4721 67.1494 47.8298 67.1494 47.0391ZM53.685 48.4728V45.6061H59.2444V48.4728H53.685ZM79.3547 21.5433H75.2283V10.5984H80.7877V20.1103C80.7877 20.9003 80.1447 21.5433 79.3547 21.5433ZM80.7877 3.95251V8.0789H75.2283V2.51953H79.3541C80.1447 2.51953 80.7877 3.16254 80.7877 3.95251ZM50.9923 3.95251C50.9923 3.16254 51.6353 2.51953 52.4253 2.51953H72.7088V21.5433H52.4253C51.6346 21.5433 50.9923 20.9003 50.9923 20.1103V3.95251ZM2.51953 56.3778H5.29889C5.34679 56.3778 5.3855 56.4165 5.3855 56.4644V65.8897C5.3855 65.9376 5.34679 65.9763 5.29889 65.9763H2.51953V56.3778ZM2.51953 33.4881H5.29889C5.34679 33.4881 5.3855 33.5268 5.3855 33.5747V43C5.3855 43.0479 5.34679 43.0866 5.29889 43.0866H2.51953V33.4881ZM37.7011 82.0475C37.7011 82.8375 37.0581 83.4805 36.2681 83.4805H3.95251C3.16254 83.4805 2.51953 82.8375 2.51953 82.0475V68.4958H5.29889C6.73647 68.4958 7.90503 67.3273 7.90503 65.8897V56.4644C7.90503 55.0275 6.73647 53.8583 5.29889 53.8583H2.51953V50.9923H30.882C31.5775 50.9923 32.1417 50.428 32.1417 49.7325C32.1417 49.037 31.5775 48.4728 30.882 48.4728H2.51953V45.6068H5.29889C6.73647 45.6068 7.90503 44.4376 7.90503 43.0007V33.5754C7.90503 32.1378 6.73647 30.9686 5.29889 30.9686H2.51953V6.64526C2.51953 4.37047 4.37047 2.51953 6.64526 2.51953H33.5747C35.8502 2.51953 37.7005 4.37047 37.7005 6.64526V48.4721H36.2681C35.5726 48.4721 35.0084 49.0364 35.0084 49.7319C35.0084 50.428 35.5726 50.9916 36.2681 50.9916H37.7005V82.0475H37.7011ZM40.2206 60.5908V13.2912H48.4728V20.1103C48.4728 22.29 50.2456 24.0628 52.4253 24.0628H64.6299V37.7011H49.7325C47.5529 37.7011 45.78 39.474 45.78 41.6536V60.5908H40.2206ZM82.0475 83.4805H49.7325C48.9419 83.4805 48.2995 82.8375 48.2995 82.0475V50.9923H83.4805V82.0475C83.4805 82.8375 82.8375 83.4805 82.0475 83.4805Z" fill="#FF8767"/>
<path d="M22.8028 10.7715H17.4167C15.9798 10.7715 14.8105 11.9407 14.8105 13.3776V16.0704C14.8105 17.5079 15.9798 18.6765 17.4167 18.6765H22.8028C24.2398 18.6765 25.409 17.5079 25.409 16.0704V13.3776C25.409 11.9407 24.2398 10.7715 22.8028 10.7715ZM22.8895 16.0704C22.8895 16.1183 22.8507 16.157 22.8028 16.157H17.4167C17.3688 16.157 17.3301 16.1183 17.3301 16.0704V13.3776C17.3301 13.3297 17.3688 13.291 17.4167 13.291H22.8028C22.8507 13.291 22.8895 13.3297 22.8895 13.3776V16.0704Z" fill="#FF8767"/>
<path d="M75.3154 45.6064H79.3546C80.0507 45.6064 80.6143 45.0422 80.6143 44.3467C80.6143 43.6512 80.0507 43.0869 79.3546 43.0869H75.3154C74.6199 43.0869 74.0557 43.6512 74.0557 44.3467C74.0557 45.0422 74.6199 45.6064 75.3154 45.6064Z" fill="#FF8767"/>
<path d="M65.8898 55.2051C59.2557 55.2051 53.8584 60.6024 53.8584 67.2365C53.8584 73.8706 59.2557 79.2679 65.8898 79.2679C72.5239 79.2679 77.9212 73.8706 77.9212 67.2365C77.9212 60.6024 72.5239 55.2051 65.8898 55.2051ZM65.8898 76.7484C60.6447 76.7484 56.3779 72.4816 56.3779 67.2365C56.3779 61.9914 60.6454 57.7246 65.8898 57.7246C71.1349 57.7246 75.4017 61.9921 75.4017 67.2365C75.4017 72.4816 71.1349 76.7484 65.8898 76.7484Z" fill="#FF8767"/>
<path d="M70.7907 64.668C70.1168 64.8419 69.7113 65.5282 69.8852 66.202C69.9718 66.538 70.0158 66.8857 70.0158 67.2361C70.0158 69.5115 68.1649 71.3625 65.8894 71.3625C63.6146 71.3625 61.7637 69.5115 61.7637 67.2361C61.7637 64.9613 63.6146 63.1104 65.8894 63.1104C66.2398 63.1104 66.5875 63.1537 66.9221 63.2403C67.596 63.4135 68.283 63.008 68.4562 62.3342C68.63 61.661 68.2246 60.974 67.5507 60.8001C67.0107 60.661 66.4517 60.5908 65.8894 60.5908C62.2249 60.5908 59.2441 63.5716 59.2441 67.2361C59.2441 70.9006 62.2249 73.882 65.8894 73.882C69.5539 73.882 72.5353 70.9006 72.5353 67.2361C72.5353 66.6738 72.4645 66.1141 72.3254 65.5735C72.1515 64.8996 71.4639 64.4948 70.7907 64.668Z" fill="#FF8767"/>
<path d="M55.1182 18.6769H68.5832C69.2787 18.6769 69.843 18.1133 69.843 17.4172V6.64551C69.843 5.95001 69.2787 5.38574 68.5832 5.38574H65.8905C65.195 5.38574 64.6307 5.95001 64.6307 6.64551C64.6307 7.34166 65.195 7.90527 65.8905 7.90527H67.3234V16.1574H56.3779V7.90527H60.5043C61.1998 7.90527 61.7641 7.34166 61.7641 6.64551C61.7641 5.95001 61.1998 5.38574 60.5043 5.38574H55.1182C54.4227 5.38574 53.8584 5.95001 53.8584 6.64551V17.4172C53.8584 18.1133 54.4227 18.6769 55.1182 18.6769Z" fill="#FF8767"/>
</g>
<defs>
<clipPath id="clip0">
<rect width="86" height="86" fill="white"/>
</clipPath>
</defs>
</svg>
