<svg width="80" height="93" viewBox="0 0 80 93" fill="none" xmlns="http://www.w3.org/2000/svg">
<path d="M76.7118 35.0813H72.6869L71.9627 28.5594C71.782 26.9356 70.4131 25.7109 68.7783 25.7109H65.1999C63.5628 25.7109 62.1947 26.9367 62.0174 28.5598L61.2934 35.0813H56.8512V31.506C56.8512 29.7416 55.4143 28.3059 53.6479 28.3059H26.3522C24.5858 28.3059 23.1489 29.7414 23.1489 31.506V35.0813H18.7067L17.983 28.562C17.805 26.9367 16.4368 25.7109 14.8001 25.7109H11.2217C9.58718 25.7109 8.21808 26.9356 8.03736 28.5596L7.31317 35.0811H3.28825C1.52188 35.0811 0.0849609 36.5166 0.0849609 38.2812V42.3693C0.0849609 44.1339 1.52188 45.5694 3.28825 45.5694H3.41079V89.7995C3.41079 91.5643 4.84789 93 6.61444 93H73.3856C75.1522 93 76.5893 91.5643 76.5893 89.7995V64.0809C76.5893 63.3285 75.9789 62.7185 75.2256 62.7185C74.4723 62.7185 73.862 63.3285 73.862 64.0809V82.0868H62.8779V53.3718C62.8779 51.6072 61.441 50.1717 59.6747 50.1717H50.5473C49.7941 50.1717 49.1837 50.7816 49.1837 51.534C49.1837 52.2863 49.7941 52.8963 50.5473 52.8963H59.6747C59.937 52.8963 60.1507 53.1095 60.1507 53.3718V69.7615H19.8494V53.3718C19.8494 53.1095 20.063 52.8963 20.3254 52.8963H44.609C45.3622 52.8963 45.9726 52.2863 45.9726 51.534C45.9726 50.7816 45.3622 50.1717 44.609 50.1717H20.3254C18.559 50.1717 17.1221 51.6072 17.1221 53.3718V82.087H6.13808V45.5696H14.9128C15.6661 45.5696 16.2765 44.9597 16.2765 44.2073C16.2765 43.4549 15.6661 42.845 14.9128 42.845H3.28825C3.02588 42.845 2.81224 42.6317 2.81224 42.3694V38.2814C2.81224 38.0193 3.02588 37.8059 3.28825 37.8059H76.7118C76.9742 37.8059 77.1878 38.0191 77.1878 38.2814V42.3694C77.1878 42.6317 76.9742 42.845 76.7118 42.845H20.8512C20.0979 42.845 19.4876 43.4549 19.4876 44.2073C19.4876 44.9597 20.0979 45.5696 20.8512 45.5696H73.8622V58.1486C73.8622 58.901 74.4725 59.5109 75.2258 59.5109C75.9791 59.5109 76.5894 58.901 76.5894 58.1486V45.5696H76.712C78.4784 45.5696 79.9153 44.1341 79.9153 42.3694V38.2814C79.9151 36.517 78.4782 35.0813 76.7118 35.0813ZM60.1507 72.4863V74.2891C60.1507 74.5514 59.937 74.7646 59.6747 74.7646H20.3254C20.063 74.7646 19.8494 74.5514 19.8494 74.2891V72.4863H60.1507ZM19.8494 77.4498C20.0052 77.4733 20.1632 77.4893 20.3254 77.4893H59.6747C59.8368 77.4893 59.9948 77.4733 60.1507 77.4498V82.087H19.8494V77.4498ZM12.2785 84.8116V86.2215C12.2785 86.9738 12.8888 87.5838 13.6421 87.5838C14.3954 87.5838 15.0057 86.9738 15.0057 86.2215V84.8116H17.1221V86.2215C17.1221 86.9738 17.7325 87.5838 18.4858 87.5838C19.239 87.5838 19.8494 86.9738 19.8494 86.2215V84.8116H21.9656V86.2215C21.9656 86.9738 22.576 87.5838 23.3292 87.5838C24.0825 87.5838 24.6929 86.9738 24.6929 86.2215V84.8116H55.3074V86.2215C55.3074 86.9738 55.9177 87.5838 56.671 87.5838C57.4243 87.5838 58.0346 86.9738 58.0346 86.2215V84.8116H60.1508V86.2215C60.1508 86.9738 60.7612 87.5838 61.5145 87.5838C62.2677 87.5838 62.8781 86.9738 62.8781 86.2215V84.8116H64.9945V86.2215C64.9945 86.9738 65.6049 87.5838 66.3581 87.5838C67.1114 87.5838 67.7218 86.9738 67.7218 86.2215V84.8116H73.8622V89.7995C73.8622 90.0619 73.6483 90.2754 73.3858 90.2754H6.61444C6.35189 90.2754 6.13808 90.0619 6.13808 89.7995V84.8116H12.2785ZM64.7285 28.8579C64.7549 28.6172 64.9576 28.4357 65.2001 28.4357H68.7785C69.0216 28.4357 69.2252 28.6183 69.2521 28.8602L69.9429 35.0815H64.0376L64.7285 28.8579ZM25.876 31.5062C25.876 31.2441 26.0896 31.0307 26.352 31.0307H53.6479C53.9103 31.0307 54.1239 31.2439 54.1239 31.5062V35.0815H25.876V31.5062ZM10.7479 28.8606C10.7748 28.6185 10.9786 28.4357 11.2216 28.4357H14.7999C15.0425 28.4357 15.2452 28.6174 15.2719 28.8602L15.9625 35.0815H10.057L10.7479 28.8606Z" fill="#FF8767"/>
<path d="M23.0703 56.9102V66.053C23.0703 66.8054 23.6807 67.4153 24.434 67.4153C25.1872 67.4153 25.7976 66.8054 25.7976 66.053V56.9102C25.7976 56.1578 25.1872 55.5479 24.434 55.5479C23.6807 55.5479 23.0703 56.1576 23.0703 56.9102Z" fill="#FF8767"/>
<path d="M29.682 62.9697H35.0447C35.798 62.9697 36.4084 62.3598 36.4084 61.6074C36.4084 60.8551 35.798 60.2451 35.0447 60.2451H29.682C28.9287 60.2451 28.3184 60.8551 28.3184 61.6074C28.3184 62.3598 28.9287 62.9697 29.682 62.9697Z" fill="#FF8767"/>
<path d="M29.682 67.415H45.4454C46.1987 67.415 46.8091 66.8051 46.8091 66.0527C46.8091 65.3004 46.1987 64.6904 45.4454 64.6904H29.682C28.9287 64.6904 28.3184 65.3004 28.3184 66.0527C28.3184 66.8051 28.9287 67.415 29.682 67.415Z" fill="#FF8767"/>
<path d="M57.4831 56.7279V56.709C57.4831 55.9566 56.8728 55.3467 56.1195 55.3467C55.3662 55.3467 54.7559 55.9566 54.7559 56.709V56.7279C54.7559 57.4802 55.3662 58.0902 56.1195 58.0902C56.8728 58.0902 57.4831 57.4802 57.4831 56.7279Z" fill="#FF8767"/>
<path d="M53.1902 56.7279V56.709C53.1902 55.9566 52.5798 55.3467 51.8265 55.3467C51.0733 55.3467 50.4629 55.9566 50.4629 56.709V56.7279C50.4629 57.4802 51.0733 58.0902 51.8265 58.0902C52.5798 58.0902 53.1902 57.4802 53.1902 56.7279Z" fill="#FF8767"/>
<path d="M48.8992 56.7279V56.709C48.8992 55.9566 48.2888 55.3467 47.5355 55.3467C46.7822 55.3467 46.1719 55.9566 46.1719 56.709V56.7279C46.1719 57.4802 46.7822 58.0902 47.5355 58.0902C48.2888 58.0902 48.8992 57.4802 48.8992 56.7279Z" fill="#FF8767"/>
<path d="M39.9995 25.0624C46.9161 25.0624 52.543 19.441 52.543 12.5312C52.543 5.62141 46.9161 0 39.9995 0C33.083 0 27.4561 5.62141 27.4561 12.5312C27.4561 19.441 33.083 25.0624 39.9995 25.0624ZM39.9995 2.72461C45.4122 2.72461 49.8157 7.12376 49.8157 12.5312C49.8157 17.9386 45.4121 22.3378 39.9995 22.3378C34.587 22.3378 30.1833 17.9386 30.1833 12.5312C30.1833 7.12376 34.5868 2.72461 39.9995 2.72461Z" fill="#FF8767"/>
<path d="M37.1086 17.1547C37.3779 17.4551 37.7506 17.6081 38.125 17.6081C38.4488 17.6081 38.7739 17.4934 39.0343 17.2606L42.6846 13.9943C43.0601 13.6583 43.2194 13.1428 43.0988 12.6538C42.9783 12.1648 42.5975 11.7821 42.1088 11.6588L41.0437 11.39L42.7846 9.8322C43.3455 9.33015 43.3932 8.46899 42.8906 7.90845C42.3881 7.34827 41.5261 7.3005 40.965 7.80255L37.3146 11.0686C36.9392 11.4047 36.7799 11.9202 36.9004 12.4091C37.021 12.8981 37.4017 13.2808 37.8904 13.4042L38.9555 13.673L37.2146 15.2307C36.6537 15.733 36.6061 16.5941 37.1086 17.1547Z" fill="#FF8767"/>
<path d="M12.7148 22.7823C17.2455 22.7823 20.9313 19.0999 20.9313 14.5738C20.9313 10.0476 17.2455 6.36523 12.7148 6.36523C8.18405 6.36523 4.49805 10.0475 4.49805 14.5738C4.49805 19.1001 8.18405 22.7823 12.7148 22.7823ZM12.7148 9.08984C15.7415 9.08984 18.204 11.5498 18.204 14.5738C18.204 17.5977 15.7415 20.0577 12.7148 20.0577C9.68805 20.0577 7.22532 17.5975 7.22532 14.5738C7.22532 11.55 9.68786 9.08984 12.7148 9.08984Z" fill="#FF8767"/>
<path d="M10.7953 15.9357H11.3518V16.4917C11.3518 17.2441 11.9622 17.854 12.7155 17.854C13.4687 17.854 14.0791 17.2441 14.0791 16.4917V15.9357H14.6356C15.3889 15.9357 15.9993 15.3258 15.9993 14.5734C15.9993 13.821 15.3889 13.2111 14.6356 13.2111H14.0791V12.6553C14.0791 11.9029 13.4687 11.293 12.7155 11.293C11.9622 11.293 11.3518 11.9029 11.3518 12.6553V13.2111H10.7953C10.042 13.2111 9.43164 13.821 9.43164 14.5734C9.43164 15.3258 10.042 15.9357 10.7953 15.9357Z" fill="#FF8767"/>
<path d="M67.2837 22.7823C71.8145 22.7823 75.5003 19.0999 75.5003 14.5738C75.5003 10.0476 71.8145 6.36523 67.2837 6.36523C62.7532 6.36523 59.0674 10.0475 59.0674 14.5738C59.0674 19.1001 62.7534 22.7823 67.2837 22.7823ZM67.2837 9.08984C70.3105 9.08984 72.773 11.5498 72.773 14.5738C72.773 17.5977 70.3105 20.0577 67.2837 20.0577C64.257 20.0577 61.7947 17.5975 61.7947 14.5738C61.7947 11.55 64.257 9.08984 67.2837 9.08984Z" fill="#FF8767"/>
<path d="M65.3656 15.9355H69.2058C69.959 15.9355 70.5694 15.3256 70.5694 14.5732C70.5694 13.8209 69.959 13.2109 69.2058 13.2109H65.3656C64.6123 13.2109 64.002 13.8209 64.002 14.5732C64.002 15.3256 64.6123 15.9355 65.3656 15.9355Z" fill="#FF8767"/>
</svg>
