<svg width="132" height="99" viewBox="0 0 132 99" fill="none" xmlns="http://www.w3.org/2000/svg">
<path d="M131.938 21.5805C131.933 21.09 131.735 20.6211 131.387 20.274C131.039 19.9269 130.569 19.7292 130.077 19.7233H100.854C100.854 19.7233 100.854 14.4484 100.854 14.4433C100.854 6.57954 94.249 0 86.3521 0H67.7643C59.8648 0 53.2623 6.58721 53.2623 14.4458V19.7233H44.5667C44.0729 19.7233 43.5993 19.9187 43.2502 20.2665C42.901 20.6143 42.7048 21.086 42.7048 21.5779C42.7048 22.0698 42.901 22.5415 43.2502 22.8893C43.5993 23.2372 44.0729 23.4326 44.5667 23.4326H127.737L120.051 56.7498C119.545 58.8358 118.445 60.7318 116.883 62.2093C115.32 63.6867 113.362 64.6824 111.245 65.0765C110.631 65.1814 84.1693 65.2351 84.1693 65.2351V61.3467C84.1579 60.2322 83.7084 59.1664 82.9171 58.3782C82.1259 57.5901 81.056 57.1423 79.937 57.1309H74.1794C73.0661 57.16 72.0066 57.6135 71.2191 58.3979C70.4316 59.1823 69.9764 60.2378 69.9472 61.3467V65.2326H58.4447L62.3867 61.5002C63.7581 60.106 63.8377 57.837 62.3867 56.4607L45.9509 40.8944C43.7732 38.8351 40.0443 40.4237 40.0443 43.4167V47.387H31.906L26.3795 23.4351H37.3221C37.8159 23.4351 38.2895 23.2397 38.6386 22.8919C38.9878 22.5441 39.184 22.0723 39.184 21.5805C39.184 21.0886 38.9878 20.6168 38.6386 20.269C38.2895 19.9212 37.8159 19.7258 37.3221 19.7258H24.0271C23.5412 19.7412 23.0794 19.9406 22.7359 20.2832C22.3923 20.6259 22.1928 21.0862 22.1781 21.5702V47.3921H5.13619C3.77399 47.3921 2.46758 47.9311 1.50435 48.8906C0.541132 49.8501 0 51.1515 0 52.5084L0 65.4679C0.0120641 66.8211 0.55707 68.1155 1.51769 69.0724C2.47831 70.0293 3.77772 70.5722 5.13619 70.5842H22.1781C22.1781 70.5842 22.1781 84.7512 22.1781 84.7588C22.1781 92.3923 28.5726 98.7544 36.2281 98.7544H99.8398C100.334 98.7544 100.807 98.559 101.156 98.2112C101.505 97.8634 101.702 97.3917 101.702 96.8998C101.702 96.4079 101.505 95.9361 101.156 95.5883C100.807 95.2405 100.334 95.0451 99.8398 95.0451H36.2307C33.4998 95.0198 30.8881 93.9279 28.957 92.0043C27.0259 90.0807 25.9298 87.4791 25.9044 84.7588V70.5791H40.0289V74.5493C40.0289 77.4912 43.7911 79.0926 45.9355 77.0716L54.5232 68.9444H69.9318V72.8328C69.9515 73.9447 70.4038 75.0056 71.1932 75.792C71.9827 76.5784 73.0477 77.0289 74.164 77.0486H79.9216C81.0391 77.0327 82.1064 76.5835 82.8967 75.7963C83.6869 75.0091 84.1379 73.946 84.1539 72.8328V68.9444H109.339C112.661 68.9269 115.88 67.7966 118.479 65.7354C121.078 63.6743 122.905 60.8021 123.667 57.5812L128.199 37.9321V84.746C128.175 87.467 127.08 90.0698 125.149 91.9948C123.219 93.9199 120.607 95.0133 117.875 95.04H106.517C106.023 95.04 105.549 95.2354 105.2 95.5832C104.851 95.931 104.655 96.4028 104.655 96.8946C104.655 97.3865 104.851 97.8583 105.2 98.2061C105.549 98.5539 106.023 98.7493 106.517 98.7493H117.875C125.536 98.7493 131.926 92.377 131.926 84.7537L131.938 21.5805ZM25.9018 37.9321L28.0847 47.3972H25.9018V37.9321ZM5.13619 66.8698C4.7633 66.8664 4.40663 66.7174 4.14295 66.4547C3.87927 66.1921 3.72965 65.8368 3.7263 65.4653V52.5033C3.72698 52.131 3.87574 51.7742 4.14 51.5109C4.40426 51.2477 4.76247 51.0995 5.13619 51.0988H41.901C42.3948 51.0988 42.8684 50.9034 43.2176 50.5556C43.5667 50.2078 43.7629 49.7361 43.7629 49.2442V43.9591L59.6414 58.9856L43.7629 74.0121V68.7244C43.7582 68.234 43.5605 67.7649 43.2124 67.4181C42.8642 67.0713 42.3934 66.8744 41.901 66.8698H5.13619ZM74.1819 73.3393C74.0457 73.3393 73.9151 73.2854 73.8188 73.1895C73.7225 73.0935 73.6683 72.9634 73.6683 72.8277V61.3416C73.6683 61.2059 73.7225 61.0758 73.8188 60.9799C73.9151 60.8839 74.0457 60.83 74.1819 60.83H79.9396C80.0758 60.83 80.2065 60.8839 80.3028 60.9799C80.3991 61.0758 80.4532 61.2059 80.4532 61.3416C80.4532 61.3416 80.4532 72.8251 80.4532 72.8277C80.4532 72.9634 80.3991 73.0935 80.3028 73.1895C80.2065 73.2854 80.0758 73.3393 79.9396 73.3393H74.1819ZM66.1721 19.7233V14.4458C66.1754 14.0262 66.3443 13.6247 66.6421 13.328C66.94 13.0313 67.343 12.8631 67.7643 12.8598H86.3521C86.7732 12.8638 87.1758 13.0322 87.4736 13.3287C87.7713 13.6253 87.9404 14.0264 87.9444 14.4458V19.7258L66.1721 19.7233ZM91.6681 19.7233C91.6681 19.7233 91.6681 14.4484 91.6681 14.4433C91.6547 13.043 91.0903 11.7038 90.0963 10.7136C89.1022 9.72343 87.7579 9.16124 86.3521 9.14791H67.7643C66.3588 9.1619 65.0148 9.72429 64.0209 10.7143C63.027 11.7044 62.4624 13.0432 62.4483 14.4433V19.7258H56.986V14.4458C56.986 8.60047 61.9013 3.70163 67.772 3.70163H86.3598C92.2279 3.70163 97.1458 8.59791 97.1458 14.4458V19.7258L91.6681 19.7233Z" fill="#FF8767"/>
</svg>
