<svg width="87" height="87" viewBox="0 0 87 87" fill="none" xmlns="http://www.w3.org/2000/svg">
<g clip-path="url(#clip0)">
<path d="M81.9238 38.2579C82.8684 38.2137 83.7144 37.6983 84.1873 36.8795L86.6931 32.5394C87.3289 31.4502 86.9357 29.9977 85.8452 29.3752L56.1491 12.2301C55.5392 11.8781 54.76 12.0871 54.4083 12.6966C54.0564 13.3061 54.2652 14.0855 54.8747 14.4374L84.3694 31.4664L81.9799 35.6051C81.9432 35.6686 81.8776 35.7086 81.8045 35.712L75.0966 36.026C75.0551 36.0278 75.0159 36.0183 74.9809 35.9984L53.9354 24.0852C52.783 23.4329 51.3689 23.3573 50.1533 23.8829L45.481 25.9035C44.989 26.1164 44.418 26.0833 43.9538 25.8153L27.0246 16.0413C26.6307 15.8139 26.3488 15.4465 26.2311 15.0073C26.1135 14.5681 26.1738 14.1093 26.4013 13.7152L32.3555 3.40215C32.8251 2.58926 33.8677 2.30923 34.6813 2.77889L49.7523 11.4801C50.362 11.832 51.1414 11.623 51.4931 11.0137C51.845 10.4042 51.6362 9.62477 51.0267 9.27286L35.9561 0.57147C34.9727 0.00377 33.827 -0.147288 32.73 0.146672C31.6331 0.440632 30.7163 1.1441 30.1486 2.12759L24.1944 12.4405C23.6265 13.424 23.4758 14.5698 23.7696 15.6666C24.0823 16.8336 24.8664 17.7947 25.9357 18.355L23.596 22.4083C23.0277 23.3918 22.877 24.5374 23.1706 25.634C23.4644 26.7305 24.1679 27.6472 25.1514 28.2153L40.5009 37.0773L39.1335 39.4456C38.6651 40.2568 38.5407 41.202 38.783 42.107C39.003 42.9283 39.5036 43.6248 40.2005 44.0971L31.3169 61.8566C30.7234 61.7436 30.1117 61.6821 29.4859 61.6821C25.4671 61.6821 22.0084 64.1216 20.5099 67.597H11.3895V60.8629C11.3895 58.1291 9.16523 55.9048 6.4314 55.9048H2.46871C1.11021 55.9048 0.00488281 57.0101 0.00488281 58.3686V84.5362C0.00488281 85.8947 1.11021 87 2.46871 87H6.4314C9.16523 87 11.3895 84.7758 11.3895 82.042V75.3079H20.5099C22.0084 78.7832 25.4671 81.2228 29.4859 81.2228C34.8733 81.2228 39.2562 76.8399 39.2562 71.4524C39.2562 69.5483 38.7067 67.7711 37.7609 66.2672L41.4691 58.8544C41.7839 58.2249 41.5289 57.4594 40.8993 57.1445C40.2698 56.8293 39.5043 57.0846 39.1894 57.7141L35.9691 64.1517C35.3068 63.5629 34.5649 63.062 33.7607 62.669L42.4064 45.3853L44.6958 46.7071L41.8524 52.3912C41.5376 53.0208 41.7926 53.7863 42.4222 54.1011C43.0413 54.4109 43.8136 54.1686 44.132 53.5316L46.969 47.8607C47.5449 48.0041 48.1411 47.9983 48.7187 47.8435C49.6235 47.601 50.3798 47.0208 50.8483 46.2094L52.2156 43.8409L67.5648 52.7025C68.2327 53.0882 68.9625 53.2714 69.6835 53.2714C71.2506 53.2714 72.7857 52.3754 73.5259 50.8805L75.894 52.2476C76.4449 52.5657 77.0471 52.717 77.6418 52.7168C78.8549 52.7168 80.0361 52.0877 80.6851 50.9639L83.9412 45.3239C84.4097 44.5126 84.5341 43.5675 84.2918 42.6625C84.0493 41.7577 83.4689 41.0014 82.6577 40.5329L80.2892 39.1656L80.7824 38.311L81.9238 38.2579ZM8.84068 82.042C8.84068 83.3704 7.76 84.4512 6.4314 84.4512H2.55367V58.4536H6.4314C7.75983 58.4536 8.84068 59.5345 8.84068 60.8629V82.042ZM19.8056 72.7591H11.3895V70.1457H19.8054C19.748 70.5736 19.7155 71.0091 19.7155 71.4524C19.7155 71.8957 19.7481 72.3314 19.8056 72.7591ZM36.7074 71.4524C36.7074 75.4345 33.4679 78.674 29.4859 78.674C25.5038 78.674 22.2643 75.4345 22.2643 71.4524C22.2643 67.4704 25.5038 64.2309 29.4859 64.2309C33.4679 64.2309 36.7074 67.4705 36.7074 71.4524ZM48.6409 44.935C48.3827 45.3873 47.7809 45.5482 47.3316 45.2859L41.6917 42.0296C41.2388 41.7709 41.0781 41.1706 41.341 40.7203L42.7083 38.352L50.0084 42.5667L48.6409 44.935ZM71.9555 48.5025C71.9548 48.5038 71.9541 48.5052 71.9534 48.5065L71.1648 49.8725C70.695 50.6854 69.6522 50.9648 68.8391 50.4954L26.426 26.0084C25.6131 25.5389 25.3335 24.4959 25.803 23.6829L28.1428 19.6294L42.6796 28.0223C43.8391 28.6916 45.2649 28.7738 46.4931 28.2425L51.1652 26.2218C51.6523 26.0114 52.2183 26.0417 52.68 26.3028L73.7257 38.2162C74.1792 38.473 74.6966 38.5965 75.2159 38.5715L77.7575 38.4526L76.9919 39.7786L71.9555 48.5025ZM81.3829 42.7405C81.8344 42.9983 81.9968 43.5994 81.7336 44.0497L78.4775 49.6897C78.2131 50.1476 77.6253 50.305 77.1681 50.0406L74.8001 48.6734L79.0146 41.3733L81.3829 42.7405ZM24.8131 71.4524C24.8131 74.0291 26.9094 76.1252 29.4859 76.1252C32.0624 76.1252 34.1586 74.0291 34.1586 71.4524C34.1586 68.8758 32.0624 66.7796 29.4859 66.7796C26.9094 66.7796 24.8131 68.8759 24.8131 71.4524ZM31.6099 71.4524C31.6099 72.6237 30.6571 73.5764 29.4859 73.5764C28.3146 73.5764 27.3619 72.6237 27.3619 71.4524C27.3619 70.2812 28.3146 69.3284 29.4859 69.3284C30.6571 69.3284 31.6099 70.2813 31.6099 71.4524Z" fill="#FF8767"/>
</g>
<defs>
<clipPath id="clip0">
<rect width="87" height="87" fill="white"/>
</clipPath>
</defs>
</svg>
