<svg width="98" height="85" viewBox="0 0 98 85" fill="none" xmlns="http://www.w3.org/2000/svg">
<g clip-path="url(#clip0)">
<path d="M16.2229 42.5004C16.2229 64.2113 7.74803 75.8742 0.639111 81.8345C0.028546 82.3513 -0.139601 83.251 0.240025 83.9698C0.625293 84.6896 1.4474 85.0195 2.1949 84.7545C12.0534 81.5097 22.3878 80.1323 32.7104 80.6872C37.1535 81.0688 41.5456 81.9396 45.8137 83.2852C49.3822 84.3367 53.0726 84.8694 56.7804 84.868C57.3893 84.868 58.0004 84.8539 58.6136 84.8256C79.0279 83.6594 95.4992 66.9591 97.2244 45.678C98.1084 33.9053 94.2106 22.2872 86.4847 13.6667C75.1339 0.911917 57.4676 -3.28783 41.951 3.07982C26.4343 9.44747 16.2282 25.0853 16.2229 42.5004ZM56.7804 3.52221C67.1475 3.53996 77.0435 8.047 84.1113 15.9698C91.2186 23.9032 94.8046 34.593 93.9927 45.4255C92.408 65.0037 77.2547 80.3683 58.4741 81.4396C54.5008 81.6302 50.5239 81.1547 46.6946 80.0313C42.203 78.6195 37.5806 77.7106 32.905 77.3198C31.247 77.213 29.6199 77.1656 28.0268 77.1656C21.1182 77.1883 14.2347 78.0338 7.50955 79.6856C13.7132 72.4441 19.4675 60.8032 19.4675 42.5004C19.4908 20.9834 36.1827 3.54649 56.7804 3.52221Z" fill="#FF8767"/>
<path d="M31.8197 63.0804C32.4293 63.08 32.9872 62.7227 33.2641 62.1554C33.5409 61.588 33.4899 60.9065 33.1321 60.3909C24.7269 48.2531 26.0026 31.5359 36.1426 20.9425C46.2826 10.3492 62.2855 9.01512 73.9054 17.7945C74.3754 18.1502 74.9914 18.217 75.5214 17.9696C76.0513 17.7222 76.4146 17.1983 76.4744 16.5952C76.5343 15.9921 76.2816 15.4014 75.8116 15.0457C62.9004 5.26991 45.1029 6.74374 33.8273 18.5225C22.5518 30.3012 21.141 48.893 30.4991 62.3805C30.8058 62.8223 31.2973 63.0828 31.8197 63.0804Z" fill="#FF8767"/>
<path d="M77.429 64.071C67.3122 74.7297 51.2565 76.0623 39.6554 67.2062C39.1853 66.8505 38.5693 66.7838 38.0394 67.0312C37.5095 67.2786 37.1462 67.8025 37.0863 68.4056C37.0265 69.0087 37.2791 69.5993 37.7492 69.9551C50.6604 79.7309 68.4579 78.257 79.7334 66.4783C91.009 54.6995 92.4198 36.1077 83.0617 22.6203C82.5316 21.8754 81.5266 21.7145 80.8074 22.2594C80.0881 22.8042 79.9222 23.8521 80.4352 24.6099C88.9147 36.7296 87.6368 53.5048 77.429 64.071Z" fill="#FF8767"/>
<path d="M45.4242 42.5005C45.4242 38.7567 42.5189 35.7217 38.935 35.7217C35.3511 35.7217 32.4458 38.7567 32.4458 42.5005C32.4458 46.2443 35.3511 49.2793 38.935 49.2793C42.5189 49.2793 45.4242 46.2443 45.4242 42.5005ZM35.6904 42.5005C35.6904 40.6286 37.1431 39.1111 38.935 39.1111C40.7269 39.1111 42.1796 40.6286 42.1796 42.5005C42.1796 44.3724 40.7269 45.8899 38.935 45.8899C37.1431 45.8899 35.6904 44.3724 35.6904 42.5005Z" fill="#FF8767"/>
<path d="M63.2699 42.5005C63.2699 38.7567 60.3646 35.7217 56.7807 35.7217C53.1968 35.7217 50.2915 38.7567 50.2915 42.5005C50.2915 46.2443 53.1968 49.2793 56.7807 49.2793C60.3646 49.2793 63.2699 46.2443 63.2699 42.5005ZM53.5361 42.5005C53.5361 40.6286 54.9888 39.1111 56.7807 39.1111C58.5726 39.1111 60.0253 40.6286 60.0253 42.5005C60.0253 44.3724 58.5726 45.8899 56.7807 45.8899C54.9888 45.8899 53.5361 44.3724 53.5361 42.5005Z" fill="#FF8767"/>
<path d="M68.1367 42.5005C68.1367 46.2443 71.042 49.2793 74.6259 49.2793C78.2098 49.2793 81.1151 46.2443 81.1151 42.5005C81.1151 38.7567 78.2098 35.7217 74.6259 35.7217C71.042 35.7217 68.1367 38.7567 68.1367 42.5005ZM77.8705 42.5005C77.8705 44.3724 76.4179 45.8899 74.6259 45.8899C72.834 45.8899 71.3813 44.3724 71.3813 42.5005C71.3813 40.6286 72.834 39.1111 74.6259 39.1111C76.4179 39.1111 77.8705 40.6286 77.8705 42.5005Z" fill="#FF8767"/>
</g>
<defs>
<clipPath id="clip0">
<rect width="97.5281" height="85" fill="white"/>
</clipPath>
</defs>
</svg>
