<svg width="102" height="73" viewBox="0 0 102 73" fill="none" xmlns="http://www.w3.org/2000/svg">
<path d="M62.1787 15.9307H17.4641C16.6389 15.9307 15.9699 16.5968 15.9699 17.4184C15.9699 18.2401 16.6389 18.9062 17.4641 18.9062H60.6846V47.7339H9.37598V18.9062H11.0757C11.9009 18.9062 12.5699 18.2401 12.5699 17.4184C12.5699 16.5968 11.9009 15.9307 11.0757 15.9307H7.88184C7.05667 15.9307 6.3877 16.5968 6.3877 17.4184V49.2217C6.3877 50.0433 7.05667 50.7094 7.88184 50.7094H62.1785C63.0037 50.7094 63.6726 50.0433 63.6726 49.2217V17.4184C63.6728 16.5968 63.0039 15.9307 62.1787 15.9307Z" fill="#FF8767"/>
<path d="M98.9089 63.6355H98.8061V4.69733C98.8061 2.12329 96.703 0.0292969 94.1181 0.0292969H78.1485C75.5635 0.0292969 73.4603 2.12329 73.4603 4.69733V46.0413C73.4603 46.863 74.1293 47.5291 74.9545 47.5291C75.7796 47.5291 76.4486 46.863 76.4486 46.0413V4.69733C76.4486 3.764 77.2112 3.00484 78.1485 3.00484H84.6393V14.5853C82.785 15.2079 81.4454 16.955 81.4454 19.0089C81.4454 21.0628 82.785 22.8097 84.6393 23.4325V54.0949H76.4488V52.4026C76.4488 51.581 75.7798 50.9149 74.9547 50.9149C74.1295 50.9149 73.4605 51.581 73.4605 52.4026V63.6359H45.8779L44.779 57.0705H65.3726C67.9577 57.0705 70.0607 54.9763 70.0607 52.4024V14.2383C70.0607 11.6643 67.9575 9.57028 65.3726 9.57028H4.68802C2.10315 9.57028 0 11.6643 0 14.2383V52.402C0 54.9761 2.10315 57.0701 4.68802 57.0701H25.2819L24.183 63.6355H3.09108C1.38656 63.6355 0 65.0163 0 66.7134V69.8937C0 71.5909 1.38656 72.9716 3.09108 72.9716H98.9089C100.613 72.9716 102 71.5909 102 69.8937V66.7134C102 65.0163 100.613 63.6355 98.9089 63.6355ZM86.1332 17.3162C87.0705 17.3162 87.833 18.0756 87.833 19.0087C87.833 19.9418 87.0704 20.7012 86.1332 20.7012C85.1961 20.7012 84.4335 19.9418 84.4335 19.0087C84.4335 18.0756 85.1959 17.3162 86.1332 17.3162ZM87.6274 23.4323C89.4817 22.8097 90.8212 21.0626 90.8212 19.0087C90.8212 16.9548 89.4817 15.2079 87.6274 14.5851V3.00484H94.1181C95.0554 3.00484 95.8178 3.7642 95.8178 4.69733V54.0945H87.6274V23.4323ZM76.4486 57.0701H95.8178V63.6355H76.4486V57.0701ZM2.98828 52.402V14.2383C2.98828 13.305 3.75089 12.5458 4.68802 12.5458H65.3726C66.31 12.5458 67.0724 13.3052 67.0724 14.2383V52.402C67.0724 53.3354 66.3098 54.0945 65.3726 54.0945H4.68802C3.75089 54.0945 2.98828 53.3354 2.98828 52.402ZM28.3114 57.0701H41.7495L42.8484 63.6355H27.2123L28.3114 57.0701ZM99.0117 69.8939C99.0117 69.9504 98.9657 69.9962 98.9089 69.9962H3.09108C3.0343 69.9962 2.98828 69.9504 2.98828 69.8939V66.7136C2.98828 66.6571 3.0343 66.6112 3.09108 66.6112H98.9089C98.9657 66.6112 99.0117 66.6571 99.0117 66.7136V69.8939Z" fill="#FF8767"/>
</svg>
