<svg width="83" height="74" viewBox="0 0 83 74" fill="none" xmlns="http://www.w3.org/2000/svg">
<path d="M18.3373 0.0527344C13.2124 0.0527344 7.01018 2.37575 2.5366 5.97094C0.924487 7.26659 0 9.22026 0 11.3314V22.5709C0 24.682 0.924487 26.6357 2.53676 27.9313C7.01034 31.5265 13.2122 33.8497 18.3373 33.8497C20.3122 33.8497 22.2254 33.5126 24.047 32.8458V47.3006C24.047 47.977 24.5913 48.5255 25.2629 48.5255C25.9345 48.5255 26.4788 47.9772 26.4788 47.3006V26.7278C26.4788 26.0513 25.9345 25.5029 25.2629 25.5029C24.5913 25.5029 24.047 26.0513 24.047 26.7278V30.2079C22.2458 30.9986 20.3288 31.3997 18.3373 31.3997C13.7295 31.3997 8.12251 29.2865 4.05309 26.0161C3.02262 25.188 2.43175 23.9322 2.43175 22.5707V11.3314C2.43175 9.97004 3.02279 8.71416 4.05309 7.88598C8.12251 4.61563 13.7293 2.50256 18.3373 2.50256C26.2456 2.50256 32.6795 8.98424 32.6795 16.9511V70.0275C32.6795 70.8383 32.0247 71.4979 31.22 71.4979H27.938C27.1332 71.4979 26.4786 70.8385 26.4786 70.0275V52.1997C26.4786 51.5233 25.9343 50.9748 25.2627 50.9748C24.5911 50.9748 24.0469 51.5233 24.0469 52.1997V70.0274C24.0469 72.1889 25.7924 73.9474 27.938 73.9474H31.22C33.3655 73.9474 35.1111 72.1889 35.1111 70.0274V16.9511C35.1111 7.63333 27.5864 0.0527344 18.3373 0.0527344Z" fill="#FF8767"/>
<path d="M7.58789 15.303V18.0031C7.58789 18.6795 8.13216 19.228 8.80377 19.228C9.47537 19.228 10.0196 18.6797 10.0196 18.0031V15.303C10.0196 14.6266 9.47537 14.0781 8.80377 14.0781C8.13216 14.0781 7.58789 14.6266 7.58789 15.303Z" fill="#FF8767"/>
<path d="M21.7968 7.40161C21.1642 7.17439 20.4688 7.50642 20.2429 8.1434C20.0172 8.78055 20.347 9.48127 20.9793 9.70865C20.9992 9.71582 23.0072 10.4822 24.6439 12.6582C25.6633 13.9183 27.5089 12.5013 26.582 11.1789C24.4858 8.39181 21.9055 7.44073 21.7968 7.40161Z" fill="#FF8767"/>
<path d="M80.3017 5.97094C75.8283 2.37575 69.6263 0.0527344 64.5013 0.0527344C55.2522 0.0527344 47.7275 7.63333 47.7275 16.9511V24.2781C47.7275 24.9546 48.2718 25.503 48.9434 25.503C49.615 25.503 50.1593 24.9546 50.1593 24.2781V16.9511C50.1593 8.98408 56.5932 2.50256 64.5015 2.50256C69.1093 2.50256 74.7163 4.61563 78.7856 7.88598C79.8162 8.71416 80.4072 9.97004 80.4072 11.3314V22.5709C80.4072 23.9324 79.8162 25.1881 78.7857 26.0163C74.7163 29.2866 69.1095 31.3999 64.5015 31.3999C62.5101 31.3999 60.593 30.9988 58.7918 30.2081V26.7279C58.7918 26.0515 58.2475 25.503 57.5759 25.503C56.9043 25.503 56.36 26.0515 56.36 26.7279V55.587C56.36 56.2634 56.9043 56.8119 57.5759 56.8119C58.2475 56.8119 58.7918 56.2634 58.7918 55.587V32.8458C60.6132 33.5126 62.5265 33.8497 64.5015 33.8497C69.6264 33.8497 75.8285 31.5267 80.3019 27.9315C81.9142 26.6359 82.8386 24.6822 82.8386 22.5711V11.3314C82.8385 9.22026 81.914 7.26659 80.3017 5.97094Z" fill="#FF8767"/>
<path d="M57.5753 59.2618C56.9037 59.2618 56.3594 59.8103 56.3594 60.4867V70.028C56.3594 70.8387 55.7046 71.4984 54.8998 71.4984H51.6179C50.8131 71.4984 50.1583 70.8389 50.1583 70.028V29.178C50.1583 28.5016 49.614 27.9531 48.9424 27.9531C48.2708 27.9531 47.7266 28.5014 47.7266 29.178V70.028C47.7266 72.1895 49.4722 73.948 51.6177 73.948H54.8997C57.0452 73.948 58.7908 72.1895 58.7908 70.028V60.4867C58.7911 59.8101 58.2469 59.2618 57.5753 59.2618Z" fill="#FF8767"/>
<path d="M75.2501 18.0031V15.303C75.2501 14.6266 74.7058 14.0781 74.0342 14.0781C73.3626 14.0781 72.8184 14.6266 72.8184 15.303V18.0031C72.8184 18.6795 73.3626 19.228 74.0342 19.228C74.7058 19.228 75.2501 18.6797 75.2501 18.0031Z" fill="#FF8767"/>
<path d="M56.4915 12.8949C57.0218 13.3011 57.7871 13.2005 58.1947 12.6584C59.8217 10.4953 61.8167 9.72493 61.8645 9.70684C62.4934 9.47751 62.8207 8.77874 62.5956 8.14355C62.3699 7.5064 61.674 7.17422 61.0417 7.40176C60.933 7.44088 58.3527 8.39195 56.2567 11.1792C55.8511 11.7179 55.9561 12.4862 56.4915 12.8949Z" fill="#FF8767"/>
</svg>
