<svg width="126" height="118" viewBox="0 0 126 118" fill="none" xmlns="http://www.w3.org/2000/svg">
<path d="M123.913 99.7853C122.895 99.7853 122.07 100.611 122.07 101.629V113.949C122.07 114.12 121.931 114.259 121.76 114.259H114.761V87.3213C114.761 86.3031 113.936 85.4776 112.919 85.4776C111.901 85.4776 111.076 86.3031 111.076 87.3213V114.259H97.5505L101.211 110.228C101.777 109.606 102.043 108.721 101.925 107.863C101.922 107.844 101.919 107.826 101.916 107.808L97.8008 83.4711L98.558 82.3302L98.7553 82.4703C99.4305 82.9504 100.292 83.1255 101.125 82.9172C101.943 82.7124 102.628 82.1615 103.005 81.4063V81.4061L107.193 73.0057L116.758 76.7136C117.136 76.8778 122.069 79.1422 122.069 85.0339V93.0244C122.07 94.0429 122.894 94.8684 123.912 94.8684C124.929 94.8684 125.754 94.0429 125.754 93.0247V85.0341C125.754 76.5258 118.463 73.4281 118.153 73.3002C118.141 73.2953 118.129 73.2906 118.118 73.2862L101.829 66.9722V63.6142C104.372 61.5668 106.157 58.6161 106.694 55.2524C107.962 55.0931 109.138 54.5849 110.114 53.7444C111.514 52.5394 112.318 50.7858 112.318 48.934C112.318 47.4558 111.805 46.0412 110.887 44.9178V39.9426C110.887 30.2061 102.973 22.2851 93.2459 22.2851C88.8786 22.2851 84.88 23.885 81.7959 26.5258C81.7561 25.113 81.2508 23.7668 80.3703 22.689V17.7141C80.3703 7.97764 72.4561 0.0566406 62.7288 0.0566406C53.0011 0.0566406 45.0871 7.97788 45.0871 17.7141V22.8188C44.2017 23.8779 43.7063 25.1548 43.6626 26.51C41.6947 24.8268 39.3395 23.5595 36.7146 22.8678C35.7292 22.6082 34.7229 23.1964 34.4638 24.1813C34.2047 25.1661 34.7922 26.1747 35.7761 26.4341C41.8951 28.0467 46.1688 33.6018 46.1688 39.9424V42.6999C46.0892 42.6834 45.8338 42.6394 45.824 42.6379C45.7989 42.1175 45.6673 41.7996 45.3838 41.3916C44.9122 40.7133 44.0654 39.8684 41.3415 36.938C40.3708 35.8945 38.8009 35.703 37.6092 36.4827C32.9437 39.5331 27.2757 41.0877 22.0156 40.7787C20.3022 40.6781 19.2321 41.4316 18.776 42.6664C18.7352 42.6731 18.2796 42.765 18.2543 42.7712V39.9424C18.2543 33.8287 22.3359 28.3287 28.1798 26.5668C29.1539 26.2733 29.7058 25.2447 29.4125 24.2695C29.119 23.2943 28.0899 22.7419 27.117 23.0359C23.563 24.1073 20.3683 26.3379 18.1221 29.3165C15.7979 32.3977 14.5696 36.0722 14.5696 39.9426V45.0476C13.6416 46.1573 13.1399 47.5059 13.1399 48.934C13.1399 52.0905 15.4634 54.8433 18.7738 55.2538C19.3161 58.5389 21.0968 61.6893 23.9071 63.8312V66.9732L7.63688 73.2867C7.62533 73.2911 7.61379 73.2958 7.60225 73.3005C7.2913 73.4281 0 76.5256 0 85.0339V113.949C0 116.153 1.792 117.947 3.99491 117.947H60.7246C61.5175 117.947 62.2551 117.711 62.8774 117.311C63.4993 117.711 64.2372 117.947 65.0302 117.947H121.76C123.963 117.947 125.755 116.153 125.755 113.949V101.629C125.755 100.611 124.93 99.7853 123.913 99.7853ZM18.5935 51.4442C17.5135 51.0518 16.8236 50.052 16.8236 48.9335C16.8236 47.8486 17.6095 46.9572 18.5935 46.5341V51.4442ZM103.742 71.6681L100.126 78.9217C100.126 78.9212 96.1098 76.0663 96.0528 76.0258C97.7853 73.8851 96.9714 74.8908 100.574 70.4402L103.742 71.6681ZM93.3898 73.4573L88.6256 67.5713V65.8026C90.1742 66.3385 91.8425 66.5858 93.4127 66.5863C93.4129 66.5863 93.4134 66.5863 93.4137 66.5863H93.4139C95.0374 66.586 96.6811 66.2775 98.1449 65.7261V67.5826L93.3898 73.4573ZM95.5527 80.1939L94.8751 81.2148H91.9053L91.2277 80.1939L93.3903 78.6567L95.5527 80.1939ZM62.8725 51.2286L58.1084 45.3426V43.5738C59.6508 44.1075 61.3173 44.357 62.8954 44.3575C62.8956 44.3575 62.8961 44.3575 62.8964 44.3575H62.8966C64.5172 44.3575 66.1606 44.05 67.6276 43.4976V45.3539L62.8725 51.2286ZM65.0352 57.9656L64.3575 58.9866H61.3878L60.7101 57.9656L62.8728 56.4284L65.0352 57.9656ZM48.3658 32.8484C48.6669 32.9305 48.9764 32.9863 49.2906 33.0251C49.8329 36.3102 51.6136 39.4605 54.4239 41.6025V44.7445L50.6658 46.2025C50.4479 45.7445 50.1755 45.3131 49.8523 44.9175V39.9426C49.8523 37.4405 49.3257 35.0353 48.3658 32.8484ZM72.6615 30.8959C72.6615 36.2927 68.263 40.6693 62.8966 40.6693C56.842 40.6693 52.7957 35.9726 52.7957 30.8959V22.2593C58.6126 22.4924 64.6554 20.7669 69.596 17.689C71.2571 19.4718 72.2454 20.5075 72.6617 20.9884C72.6615 25.5788 72.6615 27.3513 72.6615 30.8959ZM76.1765 33.0239C76.4889 32.9845 76.7969 32.9285 77.0963 32.8466C76.1394 35.0198 75.6039 37.4191 75.6039 39.9426V45.0473C75.3207 45.3859 75.0771 45.7465 74.8754 46.1248L71.3121 44.7437V41.3857C73.8544 39.3381 75.6403 36.3874 76.1765 33.0239ZM55.6819 48.2144L60.2042 53.8012L57.1202 55.9936C57.1185 55.9948 57.1173 55.996 57.1156 55.9972L56.1368 56.6932L52.5206 49.4399L55.6819 48.2144ZM67.1123 51.8488L70.0565 48.2115L73.2247 49.4394L69.609 56.6932L68.628 55.996C68.627 55.9953 68.626 55.9943 68.6251 55.9936L65.5355 53.797L67.1123 51.8488ZM68.0407 60.1017L68.238 60.2418C68.9267 60.7315 69.791 60.8933 70.6074 60.6887C71.4255 60.484 72.1111 59.933 72.4878 59.1778V59.1776L75.5968 52.941C76.665 54.2587 78.2099 55.0601 79.801 55.259C80.3629 58.7843 82.2667 61.7928 84.9414 63.8312V66.973L69.2801 73.0502L67.2833 61.2428L68.0407 60.1017ZM86.1992 70.4429L90.7215 76.0297C88.7443 77.4356 86.7565 78.8489 86.6541 78.9217L83.0379 71.6684L86.1992 70.4429ZM103.179 53.1247C103.179 58.3897 98.9071 62.898 93.4139 62.898C87.1527 62.898 83.313 57.9897 83.313 53.1247V44.4881C89.0884 44.7189 95.1391 43.0163 100.113 39.9178C101.774 41.7006 102.762 42.7363 103.179 43.2171C103.179 47.8073 103.179 49.58 103.179 53.1247ZM108.634 48.9337C108.634 50.0542 107.941 51.0521 106.864 51.4442V46.4284C107.978 46.8345 108.634 47.8535 108.634 48.9337ZM79.2884 39.9424C79.2884 32.2394 85.5498 25.9726 93.2457 25.9726C100.942 25.9726 107.203 32.2397 107.203 39.9424V42.6999C107.119 42.6824 106.889 42.6426 106.858 42.6379C106.833 42.117 106.7 41.7984 106.418 41.3916C105.934 40.6956 105.096 39.8652 102.375 36.938C101.425 35.9173 99.8588 35.6875 98.643 36.4827C94.1041 39.4505 88.3695 41.1268 82.9127 40.772C81.3798 40.6715 80.2694 41.4228 79.8098 42.6667C79.7688 42.6733 79.3139 42.7653 79.2881 42.7714V39.9424H79.2884ZM79.6286 46.5344V51.4417C78.5454 51.0508 77.8587 50.0483 77.8587 48.9335C77.8584 47.8486 78.6439 46.9577 79.6286 46.5344ZM78.1158 26.7052C78.1158 27.4816 77.7801 28.2159 77.1948 28.7196C76.9435 28.9359 76.6571 29.1021 76.3459 29.2154V24.1997C77.4475 24.5999 78.1158 25.6135 78.1158 26.7052ZM62.7281 3.74414C70.4242 3.74414 76.6854 10.0109 76.6854 17.7139V20.4714C76.6021 20.4542 76.3712 20.4141 76.3405 20.4094C76.3133 19.8448 76.1507 19.4976 75.8188 19.0485C75.3257 18.3803 74.4164 17.4616 71.8581 14.7093C70.8921 13.6711 69.3231 13.4708 68.1257 14.254C63.3323 17.3884 57.5174 18.9138 52.2468 18.5359C50.9573 18.4383 49.7432 19.2181 49.2928 20.4377C49.2518 20.4443 48.7966 20.5363 48.7711 20.5424V17.7141H48.7708C48.7708 10.0109 55.0323 3.74414 62.7281 3.74414ZM49.1108 24.3056V29.2157C48.0308 28.8233 47.3409 27.8235 47.3409 26.705C47.3409 25.6263 48.1207 24.7317 49.1108 24.3056ZM45.8284 46.4284C46.859 46.8038 47.5209 47.7038 47.5865 48.7734C47.669 49.9628 46.9388 51.0383 45.8284 51.442V46.4284ZM45.6577 55.2585C47.3952 55.041 48.9899 54.1245 50.0358 52.7146L53.2577 59.1776C53.2577 59.1776 53.2577 59.1776 53.258 59.1778C53.6345 59.9333 54.32 60.484 55.1381 60.6887C55.9469 60.8911 56.8122 60.7362 57.5076 60.2418L57.7048 60.1017L58.462 61.2426L56.4659 73.0468L40.7948 66.972V63.6154H40.7945C43.4037 61.5098 45.134 58.5347 45.6577 55.2585ZM32.3547 73.4573L27.5906 67.5713V65.8026C29.133 66.3363 30.7998 66.5858 32.3778 66.586C32.3781 66.586 32.3786 66.586 32.3788 66.586C34.0259 66.586 35.6666 66.2694 37.1098 65.7261V67.5826L32.3547 73.4573ZM34.5176 80.1939L33.84 81.2148H30.8702L30.1926 80.1939L32.3552 78.6567L34.5176 80.1939ZM39.5387 70.4402L42.7071 71.6684L39.0912 78.9217L38.1102 78.2245C38.1092 78.2238 38.1082 78.2228 38.1073 78.2221L35.0177 76.0258L39.5387 70.4402ZM22.2779 53.1247V44.4881C28.1258 44.7219 34.1725 42.9735 39.0779 39.9178C40.7233 41.6838 41.7269 42.7358 42.1437 43.2171C42.1437 47.8076 42.1437 49.5803 42.1437 53.1247C42.1437 58.487 37.7754 62.898 32.3788 62.898C26.3704 62.898 22.2779 58.255 22.2779 53.1247ZM25.1644 70.4429L29.6866 76.0297L26.6027 78.2221C26.601 78.2233 26.5998 78.2245 26.598 78.2257L25.6193 78.9217L22.0031 71.6684L25.1644 70.4429ZM14.6786 114.26V87.3213C14.6786 86.3031 13.8541 85.4776 12.8365 85.4776C11.8189 85.4776 10.9944 86.3031 10.9944 87.3213V114.259H3.99491C3.82347 114.259 3.68446 114.12 3.68446 113.949V85.0339C3.68446 79.112 8.66968 76.8547 8.99242 76.7151L18.552 73.0057L22.7399 81.4061C22.7399 81.4061 22.7399 81.4061 22.7402 81.4063C23.1167 82.1618 23.8022 82.7124 24.6206 82.9172C25.4294 83.1196 26.2947 82.9647 26.99 82.4703L27.1873 82.3302L27.9445 83.4711L23.8292 107.808C23.826 107.826 23.8233 107.844 23.8206 107.863C23.7022 108.721 23.9687 109.605 24.5344 110.229L28.1948 114.259H14.6786V114.26ZM27.5267 108.041L31.4391 84.9026H33.2711L37.1838 108.041L32.3552 113.357L27.5267 108.041ZM61.0348 113.949C61.0348 114.12 60.8958 114.259 60.7246 114.259H53.7256V87.3213C53.7256 86.3031 52.9011 85.4776 51.8835 85.4776C50.8659 85.4776 50.0414 86.3031 50.0414 87.3213V114.259H36.5154L40.1763 110.228C40.7417 109.606 41.0082 108.721 40.8896 107.863C40.8869 107.844 40.8842 107.826 40.881 107.808L36.7657 83.4711L37.5229 82.3302L37.7202 82.4703C38.2131 82.8209 38.7967 83.0038 39.3889 83.0038C40.4693 83.0038 41.4756 82.3978 41.9703 81.4063V81.4061L46.1578 73.006L55.7232 76.7139C58.5114 77.9278 61.0346 81.0585 61.0346 85.0339V113.949H61.0348ZM62.8772 78.3339C62.1141 77.1033 61.0982 75.9646 59.8736 74.9928L61.9566 62.6743H63.7887L65.8727 74.9992C64.6154 75.9985 63.6128 77.1475 62.8772 78.3339ZM75.7135 114.26V87.3213C75.7135 86.3031 74.8889 85.4776 73.8714 85.4776C72.8538 85.4776 72.0293 86.3031 72.0293 87.3213V114.259H65.03C64.8588 114.259 64.7195 114.12 64.7195 113.949V85.0339C64.7195 82.842 65.4063 80.8232 66.8692 79.1272C67.8445 78.0074 69.1381 77.1008 70.0278 76.7151L79.5873 73.0055L83.7753 81.4061C83.7753 81.4061 83.7753 81.4061 83.7755 81.4063C84.152 82.1618 84.8375 82.7124 85.6557 82.9172C86.4645 83.1196 87.3298 82.9647 88.0251 82.4703L88.2224 82.3302L88.9796 83.4711L84.8643 107.808C84.8611 107.826 84.8584 107.844 84.8557 107.863C84.7373 108.721 85.0038 109.605 85.5695 110.229L89.2299 114.259H75.7135V114.26ZM88.5615 108.041L92.4742 84.9028H94.3062L98.2188 108.041L93.3901 113.358L88.5615 108.041Z" fill="#FF8767"/>
</svg>
