<svg width="71" height="81" viewBox="0 0 71 81" fill="none" xmlns="http://www.w3.org/2000/svg">
<path d="M67.236 38.6742H65.8754V33.1486C65.8754 27.8556 64.5193 22.6729 61.9485 18.0976L62.2195 17.8249C63.1697 16.8708 63.3018 15.3718 62.534 14.2615C56.3658 5.33145 46.2602 0 35.5007 0C24.7412 0 14.6357 5.33144 8.46826 14.2611C7.70108 15.3704 7.83272 16.8686 8.77959 17.8225C8.87478 17.9186 8.96495 18.0097 9.05276 18.0983C6.48215 22.6734 5.12624 27.8559 5.12624 33.1488V38.6745H3.76593C1.71572 38.6745 0.0478516 40.3537 0.0478516 42.4176V44.6498C0.0478516 45.3053 0.575325 45.8363 1.22595 45.8363C1.87657 45.8363 2.40405 45.3053 2.40405 44.6498V42.4176C2.40405 41.6622 3.01509 41.0475 3.76593 41.0475H5.12624V54.6563H3.76593C3.01493 54.6563 2.40405 54.0409 2.40405 53.2846V50.1868C2.40405 49.5313 1.87657 49.0003 1.22595 49.0003C0.575325 49.0003 0.0478516 49.5313 0.0478516 50.1868V53.2842C0.0478516 55.3491 1.71588 57.0291 3.76593 57.0291H5.16645C5.43066 58.8343 6.97852 60.2244 8.84321 60.2244H10.3146C10.6968 61.694 12.0263 62.7815 13.6035 62.7815H16.777C18.6516 62.7815 20.1765 61.2455 20.1765 59.3575V36.3448C20.1765 34.4568 18.6516 32.921 16.777 32.921H13.6035C12.0263 32.921 10.6968 34.0085 10.3146 35.4778H8.84321C8.36302 35.4778 7.90419 35.571 7.48243 35.7389V33.1486C7.48243 28.4383 8.64843 23.8246 10.8585 19.717C11.3169 19.9502 11.8346 20.053 12.3598 20.0019C13.1872 19.9227 13.9302 19.4784 14.3985 18.7828C15.0166 17.8645 15.6979 16.9809 16.4236 16.1567C16.8554 15.6664 16.8108 14.9165 16.324 14.4816C15.8372 14.0467 15.0926 14.0918 14.661 14.5821C13.8677 15.4829 13.1232 16.4484 12.4483 17.4514C12.235 17.6941 12.0545 17.7086 11.8136 17.5218C11.8136 17.5218 10.7924 16.4944 10.4472 16.1456C10.3067 16.0041 10.2877 15.782 10.4021 15.6165C16.1298 7.32386 25.5125 2.37305 35.5007 2.37305C45.489 2.37305 54.8718 7.32386 60.5998 15.6172C60.714 15.7823 60.6954 16.0041 60.5545 16.1457L59.1877 17.5221C58.9466 17.7091 58.7667 17.6939 58.5533 17.4515C53.3525 9.72664 44.7347 5.11487 35.5007 5.11487C29.4621 5.11487 23.7144 7.03782 18.8789 10.6759C18.3575 11.068 18.2507 11.8116 18.64 12.3365C19.0295 12.8616 19.7678 12.9693 20.2888 12.5771C24.7141 9.24776 29.9744 7.48791 35.5007 7.48791C43.9526 7.48791 51.8412 11.7105 56.6031 18.7833C57.0712 19.4788 57.8144 19.923 58.6419 20.0021C58.73 20.0106 58.8176 20.0148 58.9051 20.0148C59.3388 20.0148 59.7609 19.91 60.1424 19.7162C62.3529 23.824 63.519 28.4381 63.519 33.1488V35.739C63.0973 35.5713 62.6384 35.478 62.1582 35.478H60.6861C60.3039 34.0081 58.9746 32.9205 57.3978 32.9205H54.2248C52.3503 32.9205 50.8254 34.457 50.8254 36.3456V38.8594C50.8254 39.5149 51.3527 40.046 52.0035 40.046C52.6543 40.046 53.1816 39.5149 53.1816 38.8594V36.3456C53.1816 35.7655 53.6496 35.2935 54.2248 35.2935H57.3978C57.9729 35.2935 58.4408 35.7655 58.4408 36.3456V59.3578C58.4408 59.937 57.9729 60.4083 57.3978 60.4083H54.2248C53.6496 60.4083 53.1816 59.937 53.1816 59.3578V44.3965C53.1816 43.7411 52.6543 43.21 52.0035 43.21C51.3527 43.21 50.8254 43.7411 50.8254 44.3965V59.3578C50.8254 61.2457 52.3503 62.7813 54.2248 62.7813H57.3978C58.9749 62.7813 60.3042 61.694 60.6862 60.2246H62.1582C62.6278 60.2246 63.0767 60.1357 63.4904 59.975L63.4377 66.4583C63.4004 71.0533 59.658 74.7915 55.0956 74.7915H49.2311C48.7001 72.5932 46.7302 70.956 44.3866 70.956H39.309C36.5594 70.956 34.3226 73.2088 34.3226 75.978C34.3226 78.7472 36.5596 81 39.3091 81H44.3867C46.7303 81 48.7004 79.3628 49.2312 77.1645H55.0958C60.9468 77.1645 65.7461 72.3705 65.794 66.4777L65.871 57.0284H67.236C69.2856 57.0284 70.953 55.3491 70.953 53.285V42.4179C70.953 40.3535 69.2856 38.6742 67.236 38.6742ZM12.5602 36.3448C12.5602 35.7655 13.0283 35.294 13.6037 35.294H16.7771C17.3525 35.294 17.8205 35.7653 17.8205 36.3448V59.3577C17.8205 59.9372 17.3525 60.4086 16.7771 60.4086H13.6035C13.0281 60.4086 12.56 59.9373 12.56 59.3577L12.5602 36.3448ZM8.84321 37.851H10.204V57.8516H8.84321C8.093 57.8516 7.48243 57.2368 7.48243 56.4812V39.2216C7.48243 38.466 8.093 37.851 8.84321 37.851ZM44.3867 78.627H39.3091C37.859 78.627 36.679 77.4385 36.679 75.978C36.679 74.5175 37.859 73.329 39.3091 73.329H44.3867C45.8369 73.329 47.0169 74.5175 47.0169 75.978C47.0169 77.4385 45.8369 78.627 44.3867 78.627ZM62.1582 57.8516H60.7968V37.851H62.1582C62.9086 37.851 63.519 38.466 63.519 39.2216V56.4714L63.5189 56.4829C63.5179 57.2377 62.9081 57.8516 62.1582 57.8516ZM68.5968 53.2849C68.5968 54.0404 67.9862 54.6552 67.236 54.6552H65.8754V41.0471H67.236C67.9862 41.0471 68.5968 41.662 68.5968 42.4176V53.2849Z" fill="#FF8767"/>
</svg>
