<svg width="162" height="119" viewBox="0 0 162 119" fill="none" xmlns="http://www.w3.org/2000/svg">
<path d="M113.468 0.128906H105.351C101.53 0.128906 98.3315 2.83964 97.5737 6.43907C91.3424 9.55744 60.7614 24.0409 20.4927 29.3425C18.2313 29.6403 16.2895 30.8695 15.034 32.6048H7.94781C3.56527 32.6051 0 36.1714 0 40.555V56.7932C0 61.1769 3.56527 64.7431 7.94781 64.7431H15.0347C16.2899 66.4784 18.232 67.7079 20.493 68.0054C20.8977 68.0589 21.2995 68.1149 21.7026 68.1703L34.1652 113.048C35.1173 116.476 38.2662 118.87 41.8232 118.87H56.6402C56.643 118.87 56.6456 118.871 56.6484 118.871C56.6519 118.871 56.6548 118.87 56.6582 118.87H59.3553C60.756 118.87 61.8919 117.734 61.8919 116.333C61.8919 114.931 60.7563 113.795 59.3553 113.795H58.5779L47.2597 73.0417C73.872 79.5282 92.8171 88.5288 97.574 90.9091C98.3315 94.5086 101.53 97.2193 105.351 97.2193H113.468C117.85 97.2193 121.416 93.6531 121.416 89.2694V8.0788C121.416 3.69511 117.85 0.128906 113.468 0.128906ZM13.5283 59.6685H7.94781C6.36261 59.6685 5.07294 58.3785 5.07294 56.7928V40.5547C5.07294 38.9691 6.36261 37.6791 7.94781 37.6791H13.5283V59.6685ZM53.3122 113.795H41.8232C40.5367 113.795 39.398 112.93 39.0537 111.69L27.1935 68.9853C32.1877 69.7854 37.01 70.7165 41.6315 71.7356L53.3122 113.795ZM116.342 89.2694C116.342 90.855 115.053 92.145 113.467 92.145H105.351C103.765 92.145 102.476 90.855 102.476 89.2694V89.2662C102.476 89.2605 102.476 89.2549 102.476 89.2488V29.7308C102.476 28.3297 101.34 27.1935 99.9391 27.1935C98.5381 27.1935 97.4025 28.3294 97.4025 29.7308V85.1848C87.4158 80.4413 58.302 67.8652 21.1546 62.9745C19.6985 62.783 18.6009 61.556 18.6009 60.1207V37.2275C18.6009 35.7922 19.6988 34.5655 21.1546 34.3737C58.302 29.4833 87.4158 16.907 97.4025 12.1637V18.9053C97.4025 20.3064 98.5381 21.4426 99.9391 21.4426C101.34 21.4426 102.476 20.3067 102.476 18.9053V8.09653C102.476 8.09336 102.476 8.0902 102.476 8.08703V8.0788C102.476 6.49319 103.765 5.20318 105.351 5.20318H113.467C115.053 5.20318 116.342 6.49319 116.342 8.0788V89.2694Z" fill="#FF8767"/>
<path d="M159.463 46.1367H132.407C131.006 46.1367 129.87 47.2726 129.87 48.674C129.87 50.0751 131.006 51.2113 132.407 51.2113H159.463C160.864 51.2113 162 50.0754 162 48.674C162 47.2726 160.864 46.1367 159.463 46.1367Z" fill="#FF8767"/>
<path d="M153.677 20.6115C153.126 19.3234 151.634 18.7271 150.347 19.2791L147.641 20.439C146.354 20.991 145.757 22.4826 146.309 23.7704C146.721 24.7325 147.658 25.3085 148.641 25.3085C148.975 25.3085 149.314 25.2424 149.639 25.1028L152.345 23.9429C153.633 23.3909 154.229 21.8996 153.677 20.6115Z" fill="#FF8767"/>
<path d="M142.855 25.2511C142.304 23.9633 140.812 23.3667 139.525 23.9187L131.408 27.3985C130.121 27.9504 129.524 29.4421 130.076 30.7299C130.488 31.6917 131.425 32.268 132.409 32.268C132.742 32.268 133.081 32.2018 133.406 32.0623L141.523 28.5825C142.811 28.0305 143.407 26.5389 142.855 25.2511Z" fill="#FF8767"/>
<path d="M152.346 73.4052L149.632 72.2421C148.345 71.6898 146.854 72.2867 146.302 73.5745C145.75 74.8623 146.347 76.3539 147.634 76.9058L150.347 78.0689C150.673 78.2085 151.012 78.2747 151.345 78.2747C152.33 78.2747 153.266 77.6983 153.678 76.7362C154.23 75.4487 153.634 73.9571 152.346 73.4052Z" fill="#FF8767"/>
<path d="M141.519 68.7646L133.406 65.2867C132.119 64.7351 130.627 65.3313 130.076 66.6191C129.524 67.9072 130.12 69.3985 131.408 69.9505L139.521 73.4284C139.846 73.568 140.185 73.6341 140.519 73.6341C141.503 73.6341 142.439 73.0578 142.851 72.096C143.404 70.8082 142.807 69.3166 141.519 68.7646Z" fill="#FF8767"/>
</svg>
