<svg width="51" height="81" viewBox="0 0 51 81" fill="none" xmlns="http://www.w3.org/2000/svg">
<path d="M33.843 78.627H7.16243C4.5586 78.627 2.44021 76.4979 2.44021 73.8809V24.9961C2.44021 24.3407 1.91164 23.8096 1.25966 23.8096C0.607676 23.8096 0.0791016 24.3407 0.0791016 24.9961V73.8809C0.0791016 77.8064 3.25668 81 7.16243 81H33.843C34.495 81 35.0235 80.4689 35.0235 79.8135C35.0235 79.158 34.495 78.627 33.843 78.627Z" fill="#FF8767"/>
<path d="M43.8384 0H7.16243C3.25668 0 0.0791016 3.19365 0.0791016 7.11914V19.459C0.0791016 20.1144 0.607676 20.6455 1.25966 20.6455C1.91164 20.6455 2.44021 20.1144 2.44021 19.459V7.11914C2.44021 4.50214 4.5586 2.37305 7.16243 2.37305H43.8384C46.4422 2.37305 48.5606 4.50214 48.5606 7.11914V73.8809C48.5606 76.4979 46.4422 78.627 43.8384 78.627H39.3522C38.7003 78.627 38.1717 79.158 38.1717 79.8135C38.1717 80.4689 38.7003 81 39.3522 81H43.8384C47.7441 81 50.9217 77.8064 50.9217 73.8809V7.11914C50.9217 3.19365 47.7441 0 43.8384 0Z" fill="#FF8767"/>
<path d="M27.547 4.74609H19.6766C19.0247 4.74609 18.4961 5.27718 18.4961 5.93262C18.4961 6.58805 19.0247 7.11914 19.6766 7.11914H27.547C28.199 7.11914 28.7276 6.58805 28.7276 5.93262C28.7276 5.27718 28.199 4.74609 27.547 4.74609Z" fill="#FF8767"/>
<path d="M33.0916 46.4277C32.1851 45.5166 30.7943 45.2683 29.6312 45.8094L26.4586 47.2853C26.1898 47.4106 25.8687 47.3531 25.6593 47.1426L18.8903 40.3394C18.681 40.129 18.624 39.8062 18.7483 39.5362L20.2168 36.3476C20.7553 35.1785 20.5082 33.7807 19.6015 32.8695L15.8577 29.1069C15.2778 28.5241 14.5069 28.2031 13.6868 28.2031C12.8667 28.2031 12.0957 28.5241 11.5158 29.1069L7.6409 33.0013C7.61587 33.0266 7.59194 33.0528 7.56943 33.0801C6.13167 34.5876 5.77814 36.8401 6.6944 38.7198C9.25259 43.9682 12.5929 48.5011 16.6227 52.1924C17.1045 52.6338 17.8513 52.5992 18.2905 52.1147C18.7298 51.6305 18.695 50.88 18.2132 50.4386C14.4037 46.9489 11.2417 42.655 8.81468 37.6757C8.32688 36.6749 8.5271 35.4716 9.31303 34.6817C9.33539 34.6592 9.35648 34.6363 9.37663 34.6124L13.1853 30.7847C13.3192 30.6501 13.4971 30.576 13.6866 30.576C13.8761 30.576 14.054 30.6502 14.1881 30.7848L17.9317 34.5472C18.1412 34.7578 18.1982 35.0805 18.0739 35.3506L16.6052 38.5392C16.0669 39.7086 16.314 41.1063 17.2206 42.0173L23.9894 48.8205C24.8957 49.7314 26.2863 49.9798 27.4498 49.4387L30.6227 47.9627C30.8912 47.8379 31.2125 47.895 31.4217 48.1056L35.1655 51.8681C35.4419 52.1461 35.4419 52.5982 35.1655 52.876L31.2934 56.7677C31.2903 56.771 31.2868 56.7743 31.2835 56.7776C30.4983 57.5612 29.3042 57.7588 28.309 57.2687C26.2126 56.2366 24.2247 55.0667 22.4005 53.7917C21.865 53.4171 21.1293 53.5504 20.7573 54.0883C20.3851 54.6262 20.5173 55.3658 21.0525 55.7398C22.9747 57.0833 25.0667 58.3146 27.2702 59.3997C27.9657 59.742 28.7118 59.9085 29.4522 59.9085C30.7393 59.9085 32.0085 59.4052 32.9599 58.4489C32.9633 58.4454 32.967 58.4416 32.9706 58.438L36.8349 54.5539C38.0319 53.3509 38.0319 51.3932 36.8349 50.19L33.0916 46.4277Z" fill="#FF8767"/>
<path d="M38.7653 39.7917C36.9946 33.6666 32.299 28.9472 26.2045 27.1676C25.5786 26.9846 24.9233 27.3468 24.7415 27.9759C24.5596 28.6052 24.9197 29.2636 25.5459 29.4464C30.8598 30.9982 34.9541 35.1129 36.498 40.4538C36.648 40.9724 37.1194 41.3095 37.6311 41.3095C37.7402 41.3095 37.851 41.2942 37.9611 41.2621C38.5871 41.0795 38.9472 40.4211 38.7653 39.7917Z" fill="#FF8767"/>
<path d="M24.4637 35.9238C27.176 36.7159 29.2657 38.8161 30.0537 41.5422C30.2037 42.0608 30.6752 42.3979 31.1869 42.3979C31.296 42.3979 31.4068 42.3826 31.5168 42.3505C32.143 42.1677 32.5031 41.5093 32.3212 40.88C31.3064 37.3696 28.6153 34.665 25.1225 33.645C24.4965 33.4623 23.8413 33.8243 23.6595 34.4533C23.4776 35.0826 23.8375 35.7411 24.4637 35.9238Z" fill="#FF8767"/>
<path d="M43.6315 40.6688C43.7406 40.6688 43.8514 40.6535 43.9614 40.6214C44.5876 40.4386 44.9477 39.7802 44.7658 39.1509C43.6343 35.2371 41.5802 31.5834 38.8252 28.5848C38.3827 28.1032 37.6358 28.0733 37.157 28.518C36.678 28.9626 36.6482 29.7133 37.0906 30.1947C39.5987 32.9246 41.4687 36.2504 42.4985 39.8131C42.6483 40.3319 43.1198 40.6688 43.6315 40.6688Z" fill="#FF8767"/>
<path d="M25.3792 21.9459C25.1973 22.5752 25.5574 23.2335 26.1836 23.4163C28.593 24.1198 30.8731 25.1987 32.9601 26.6232C33.1633 26.7618 33.3939 26.8282 33.6223 26.8282C34.0003 26.8282 34.3718 26.6461 34.6 26.308C34.9663 25.7659 34.826 25.028 34.2866 24.6599C31.9943 23.0954 29.4898 21.9103 26.8423 21.1373C26.2162 20.9543 25.5612 21.3164 25.3792 21.9459Z" fill="#FF8767"/>
<path d="M31.4823 7.11914C32.1343 7.11914 32.6629 6.58792 32.6629 5.93262C32.6629 5.27732 32.1343 4.74609 31.4823 4.74609C30.8303 4.74609 30.3018 5.27732 30.3018 5.93262C30.3018 6.58792 30.8303 7.11914 31.4823 7.11914Z" fill="#FF8767"/>
</svg>
