<svg width="84" height="81" viewBox="0 0 84 81" fill="none" xmlns="http://www.w3.org/2000/svg">
<path d="M82.7695 0.0175781H1.23047C0.550922 0.0175781 0 0.570255 0 1.25233V57.7976C0 58.4797 0.550922 59.0323 1.23047 59.0323H29.1685V73.1927H25.4264C24.7469 73.1927 24.1959 73.7454 24.1959 74.4275V79.7501C24.1959 80.4322 24.7469 80.9848 25.4264 80.9848H58.5736C59.2531 80.9848 59.8041 80.4322 59.8041 79.7501V74.4275C59.8041 73.7454 59.2531 73.1927 58.5736 73.1927H54.8315V59.0323H70.7534C71.433 59.0323 71.9839 58.4797 71.9839 57.7976C71.9839 57.1155 71.433 56.5628 70.7534 56.5628H2.46094V2.48709H81.5391V56.5628H76.5122C75.8326 56.5628 75.2817 57.1155 75.2817 57.7976C75.2817 58.4797 75.8326 59.0323 76.5122 59.0323H82.7695C83.4491 59.0323 84 58.4797 84 57.7976V1.25233C84 0.570255 83.4491 0.0175781 82.7695 0.0175781ZM52.3706 73.1925H39.0813C38.4018 73.1925 37.8509 73.7452 37.8509 74.4273C37.8509 75.1094 38.4018 75.662 39.0813 75.662H57.3431V78.5151H26.6569V75.662H33.3227C34.0023 75.662 34.5532 75.1094 34.5532 74.4273C34.5532 73.7452 34.0023 73.1925 33.3227 73.1925H31.6294V59.0323H52.3707V73.1925H52.3706Z" fill="#FF8767"/>
<path d="M11.4446 5.00684H6.20117C5.52162 5.00684 4.9707 5.55951 4.9707 6.24159V52.8067C4.9707 53.4888 5.52162 54.0415 6.20117 54.0415H77.798C78.4776 54.0415 79.0285 53.4888 79.0285 52.8067V6.24159C79.0285 5.55951 78.4776 5.00684 77.798 5.00684H17.2032C16.5237 5.00684 15.9727 5.55951 15.9727 6.24159C15.9727 6.92367 16.5237 7.47635 17.2032 7.47635H76.5676V51.572H7.43164V7.47635H11.4446C12.1242 7.47635 12.6751 6.92367 12.6751 6.24159C12.6751 5.55951 12.1242 5.00684 11.4446 5.00684Z" fill="#FF8767"/>
<path d="M72.4946 22.7761C73.1741 22.7761 73.7251 22.2234 73.7251 21.5414V11.5629C73.7251 10.8808 73.1741 10.3281 72.4946 10.3281H62.5508C61.8712 10.3281 61.3203 10.8808 61.3203 11.5629C61.3203 12.245 61.8712 12.7976 62.5508 12.7976H71.2641V21.5414C71.2641 22.2233 71.8151 22.7761 72.4946 22.7761Z" fill="#FF8767"/>
<path d="M21.4497 10.3281H11.5059C10.8263 10.3281 10.2754 10.8808 10.2754 11.5629V21.5414C10.2754 22.2234 10.8263 22.7761 11.5059 22.7761C12.1854 22.7761 12.7363 22.2234 12.7363 21.5414V12.7976H21.4497C22.1292 12.7976 22.6802 12.245 22.6802 11.5629C22.6802 10.8808 22.1292 10.3281 21.4497 10.3281Z" fill="#FF8767"/>
<path d="M11.5059 36.2725C10.8263 36.2725 10.2754 36.8251 10.2754 37.5072V47.4855C10.2754 48.1676 10.8263 48.7203 11.5059 48.7203H21.4497C22.1292 48.7203 22.6802 48.1676 22.6802 47.4855C22.6802 46.8034 22.1292 46.2508 21.4497 46.2508H12.7363V37.5072C12.7363 36.8253 12.1854 36.2725 11.5059 36.2725Z" fill="#FF8767"/>
<path d="M62.5508 48.7203H72.4946C73.1741 48.7203 73.7251 48.1676 73.7251 47.4855V37.5072C73.7251 36.8251 73.1741 36.2725 72.4946 36.2725C71.8151 36.2725 71.2641 36.8251 71.2641 37.5072V46.2508H62.5508C61.8712 46.2508 61.3203 46.8035 61.3203 47.4855C61.3203 48.1676 61.8712 48.7203 62.5508 48.7203Z" fill="#FF8767"/>
</svg>
