<svg width="81" height="72" viewBox="0 0 81 72" fill="none" xmlns="http://www.w3.org/2000/svg">
<path d="M53.6923 2.40297H50.2674C49.9616 2.40297 49.6683 2.28091 49.452 2.06365C49.2357 1.84638 49.1143 1.55171 49.1143 1.24445C49.1143 0.937196 49.2357 0.642523 49.452 0.425259C49.6683 0.207995 49.9616 0.0859375 50.2674 0.0859375H53.6923C53.9981 0.0859375 54.2914 0.207995 54.5077 0.425259C54.7239 0.642523 54.8454 0.937196 54.8454 1.24445C54.8454 1.55171 54.7239 1.84638 54.5077 2.06365C54.2914 2.28091 53.9981 2.40297 53.6923 2.40297Z" fill="#FF8767"/>
<path d="M76.6859 25.5733H4.31406C3.20731 25.5721 2.14624 25.1298 1.36365 24.3436C0.581064 23.5574 0.140869 22.4914 0.139648 21.3795V4.27977C0.140869 3.16787 0.581064 2.10187 1.36365 1.31564C2.14624 0.529407 3.20731 0.0871641 4.31406 0.0859375H30.7674C31.0732 0.0859375 31.3665 0.207995 31.5828 0.425259C31.7991 0.642523 31.9205 0.937196 31.9205 1.24445C31.9205 1.55171 31.7991 1.84638 31.5828 2.06365C31.3665 2.28091 31.0732 2.40297 30.7674 2.40297H4.31406C3.8188 2.40358 3.34399 2.60151 2.99378 2.95335C2.64358 3.30518 2.44656 3.7822 2.44595 4.27977V21.3795C2.44656 21.877 2.64358 22.3541 2.99378 22.7059C3.34399 23.0577 3.8188 23.2557 4.31406 23.2563H76.6859C77.1812 23.2557 77.656 23.0577 78.0062 22.7059C78.3564 22.3541 78.5534 21.877 78.5541 21.3795V4.27977C78.5534 3.7822 78.3564 3.30518 78.0062 2.95335C77.656 2.60151 77.1812 2.40358 76.6859 2.40297H61.7641C61.4583 2.40297 61.165 2.28091 60.9487 2.06365C60.7325 1.84638 60.611 1.55171 60.611 1.24445C60.611 0.937196 60.7325 0.642523 60.9487 0.425259C61.165 0.207995 61.4583 0.0859375 61.7641 0.0859375H76.6859C77.7927 0.0871641 78.8538 0.529407 79.6364 1.31564C80.419 2.10187 80.8591 3.16787 80.8604 4.27977V21.3795C80.8591 22.4914 80.419 23.5574 79.6364 24.3436C78.8538 25.1298 77.7927 25.5721 76.6859 25.5733Z" fill="#FF8767"/>
<path d="M42.1954 2.40297H38.8397C38.5338 2.40297 38.2405 2.28091 38.0243 2.06365C37.808 1.84638 37.6865 1.55171 37.6865 1.24445C37.6865 0.937196 37.808 0.642523 38.0243 0.425259C38.2405 0.207995 38.5338 0.0859375 38.8397 0.0859375H42.1954C42.5012 0.0859375 42.7945 0.207995 43.0108 0.425259C43.227 0.642523 43.3485 0.937196 43.3485 1.24445C43.3485 1.55171 43.227 1.84638 43.0108 2.06365C42.7945 2.28091 42.5012 2.40297 42.1954 2.40297Z" fill="#FF8767"/>
<path d="M67.9232 18.7074C66.7662 18.7074 65.6352 18.3628 64.6731 17.717C63.7111 17.0712 62.9613 16.1533 62.5185 15.0794C62.0758 14.0055 61.9599 12.8238 62.1857 11.6837C62.4114 10.5437 62.9685 9.49644 63.7867 8.67451C64.6048 7.85257 65.6471 7.29283 66.7819 7.06606C67.9167 6.83928 69.0929 6.95567 70.1619 7.4005C71.2308 7.84533 72.1444 8.59862 72.7872 9.56511C73.43 10.5316 73.7731 11.6679 73.7731 12.8303C73.7713 14.3884 73.1544 15.8822 72.0577 16.984C70.961 18.0858 69.4741 18.7056 67.9232 18.7074ZM67.9232 9.27016C67.2223 9.27016 66.5372 9.47896 65.9544 9.87015C65.3717 10.2613 64.9175 10.8174 64.6493 11.4679C64.3811 12.1184 64.3109 12.8342 64.4476 13.5248C64.5844 14.2154 64.9219 14.8498 65.4175 15.3477C65.913 15.8456 66.5445 16.1846 67.2319 16.322C67.9193 16.4594 68.6318 16.3889 69.2793 16.1194C69.9268 15.85 70.4802 15.3936 70.8696 14.8082C71.259 14.2227 71.4668 13.5344 71.4668 12.8303C71.4656 11.8865 71.0919 10.9816 70.4276 10.3143C69.7633 9.64687 68.8626 9.27139 67.9232 9.27016Z" fill="#FF8767"/>
<path d="M51.6683 18.7074C50.5113 18.7074 49.3803 18.3628 48.4183 17.717C47.4562 17.0712 46.7064 16.1533 46.2637 15.0794C45.8209 14.0055 45.705 12.8238 45.9308 11.6837C46.1565 10.5437 46.7136 9.49644 47.5318 8.67451C48.3499 7.85257 49.3923 7.29283 50.527 7.06606C51.6618 6.83928 52.838 6.95567 53.907 7.4005C54.9759 7.84533 55.8896 8.59862 56.5324 9.56511C57.1752 10.5316 57.5183 11.6679 57.5183 12.8303C57.5164 14.3884 56.8995 15.8822 55.8028 16.984C54.7061 18.0858 53.2192 18.7056 51.6683 18.7074ZM51.6683 9.27016C50.9674 9.27016 50.2823 9.47896 49.6996 9.87015C49.1168 10.2613 48.6626 10.8174 48.3944 11.4679C48.1262 12.1184 48.056 12.8342 48.1928 13.5248C48.3295 14.2154 48.667 14.8498 49.1626 15.3477C49.6582 15.8456 50.2896 16.1846 50.977 16.322C51.6644 16.4594 52.3769 16.3889 53.0244 16.1194C53.6719 15.85 54.2254 15.3936 54.6147 14.8082C55.0041 14.2227 55.2119 13.5344 55.2119 12.8303C55.2107 11.8865 54.837 10.9816 54.1727 10.3143C53.5084 9.64687 52.6078 9.27139 51.6683 9.27016Z" fill="#FF8767"/>
<path d="M39.5158 13.9879H8.38069C8.07486 13.9879 7.78155 13.8659 7.56529 13.6486C7.34903 13.4313 7.22754 13.1367 7.22754 12.8294C7.22754 12.5222 7.34903 12.2275 7.56529 12.0102C7.78155 11.793 8.07486 11.6709 8.38069 11.6709H39.5158C39.8217 11.6709 40.115 11.793 40.3312 12.0102C40.5475 12.2275 40.669 12.5222 40.669 12.8294C40.669 13.1367 40.5475 13.4313 40.3312 13.6486C40.115 13.8659 39.8217 13.9879 39.5158 13.9879Z" fill="#FF8767"/>
<path d="M76.6802 55.6944H4.31983C3.21155 55.6932 2.14901 55.2503 1.36534 54.463C0.581672 53.6757 0.140869 52.6082 0.139648 51.4948V34.4067C0.140869 33.2932 0.581672 32.2257 1.36534 31.4384C2.14901 30.6511 3.21155 30.2083 4.31983 30.207H76.6802C77.7885 30.2083 78.851 30.6511 79.6347 31.4384C80.4183 32.2257 80.8591 33.2932 80.8604 34.4067V51.4948C80.8591 52.6082 80.4183 53.6757 79.6347 54.463C78.851 55.2503 77.7885 55.6932 76.6802 55.6944ZM4.31983 32.5241C3.82303 32.5247 3.34676 32.7232 2.99547 33.0761C2.64419 33.4291 2.44656 33.9075 2.44595 34.4067V51.4948C2.44656 51.9939 2.64419 52.4724 2.99547 52.8253C3.34676 53.1782 3.82303 53.3768 4.31983 53.3774H76.6802C77.177 53.3768 77.6532 53.1782 78.0045 52.8253C78.3558 52.4724 78.5534 51.9939 78.5541 51.4948V34.4067C78.5534 33.9075 78.3558 33.4291 78.0045 33.0761C77.6532 32.7232 77.177 32.5247 76.6802 32.5241H4.31983Z" fill="#FF8767"/>
<path d="M67.9232 48.8285C66.7662 48.8285 65.6352 48.4839 64.6731 47.8381C63.7111 47.1923 62.9613 46.2744 62.5185 45.2005C62.0758 44.1266 61.9599 42.9449 62.1857 41.8048C62.4114 40.6647 62.9685 39.6175 63.7867 38.7956C64.6048 37.9737 65.6471 37.4139 66.7819 37.1871C67.9167 36.9604 69.0929 37.0768 70.1619 37.5216C71.2308 37.9664 72.1444 38.7197 72.7872 39.6862C73.43 40.6527 73.7731 41.789 73.7731 42.9514C73.7713 44.5095 73.1544 46.0033 72.0577 47.1051C70.961 48.2069 69.4741 48.8267 67.9232 48.8285ZM67.9232 39.3913C67.2223 39.3913 66.5372 39.6001 65.9544 39.9912C65.3717 40.3824 64.9175 40.9385 64.6493 41.589C64.3811 42.2395 64.3109 42.9553 64.4476 43.6459C64.5844 44.3365 64.9219 44.9709 65.4175 45.4688C65.913 45.9667 66.5445 46.3057 67.2319 46.4431C67.9193 46.5805 68.6318 46.51 69.2793 46.2405C69.9268 45.9711 70.4802 45.5147 70.8696 44.9293C71.259 44.3438 71.4668 43.6555 71.4668 42.9514C71.4656 42.0076 71.0919 41.1027 70.4276 40.4353C69.7633 39.768 68.8626 39.3925 67.9232 39.3913Z" fill="#FF8767"/>
<path d="M51.6683 48.8285C50.5113 48.8285 49.3803 48.4839 48.4183 47.8381C47.4562 47.1923 46.7064 46.2744 46.2637 45.2005C45.8209 44.1266 45.705 42.9449 45.9308 41.8048C46.1565 40.6647 46.7136 39.6175 47.5318 38.7956C48.3499 37.9737 49.3923 37.4139 50.527 37.1871C51.6618 36.9604 52.838 37.0768 53.907 37.5216C54.9759 37.9664 55.8896 38.7197 56.5324 39.6862C57.1752 40.6527 57.5183 41.789 57.5183 42.9514C57.5164 44.5095 56.8995 46.0033 55.8028 47.1051C54.7061 48.2069 53.2192 48.8267 51.6683 48.8285ZM51.6683 39.3913C50.9674 39.3913 50.2823 39.6001 49.6996 39.9912C49.1168 40.3824 48.6626 40.9385 48.3944 41.589C48.1262 42.2395 48.056 42.9553 48.1928 43.6459C48.3295 44.3365 48.667 44.9709 49.1626 45.4688C49.6582 45.9667 50.2896 46.3057 50.977 46.4431C51.6644 46.5805 52.3769 46.51 53.0244 46.2405C53.6719 45.9711 54.2254 45.5147 54.6147 44.9293C55.0041 44.3438 55.2119 43.6555 55.2119 42.9514C55.2107 42.0076 54.837 41.1027 54.1727 40.4353C53.5084 39.768 52.6078 39.3925 51.6683 39.3913Z" fill="#FF8767"/>
<path d="M39.5158 44.11H8.38069C8.07486 44.11 7.78155 43.9879 7.56529 43.7707C7.34903 43.5534 7.22754 43.2587 7.22754 42.9515C7.22754 42.6442 7.34903 42.3496 7.56529 42.1323C7.78155 41.915 8.07486 41.793 8.38069 41.793H39.5158C39.8217 41.793 40.115 41.915 40.3312 42.1323C40.5475 42.3496 40.669 42.6442 40.669 42.9515C40.669 43.2587 40.5475 43.5534 40.3312 43.7707C40.115 43.9879 39.8217 44.11 39.5158 44.11Z" fill="#FF8767"/>
<path d="M40.4998 32.525C40.194 32.525 39.9007 32.4029 39.6844 32.1856C39.4682 31.9684 39.3467 31.6737 39.3467 31.3665V24.4154C39.3467 24.1081 39.4682 23.8134 39.6844 23.5962C39.9007 23.3789 40.194 23.2568 40.4998 23.2568C40.8057 23.2568 41.099 23.3789 41.3152 23.5962C41.5315 23.8134 41.653 24.1081 41.653 24.4154V31.3665C41.653 31.6737 41.5315 31.9684 41.3152 32.1856C41.099 32.4029 40.8057 32.525 40.4998 32.525Z" fill="#FF8767"/>
<path d="M40.4998 64.341C40.194 64.341 39.9007 64.2189 39.6844 64.0017C39.4682 63.7844 39.3467 63.4897 39.3467 63.1825V54.5364C39.3467 54.2292 39.4682 53.9345 39.6844 53.7173C39.9007 53.5 40.194 53.3779 40.4998 53.3779C40.8057 53.3779 41.099 53.5 41.3152 53.7173C41.5315 53.9345 41.653 54.2292 41.653 54.5364V63.1825C41.653 63.4897 41.5315 63.7844 41.3152 64.0017C41.099 64.2189 40.8057 64.341 40.4998 64.341Z" fill="#FF8767"/>
<path d="M46.158 71.9144H34.4246C34.1188 71.9144 33.8255 71.7924 33.6092 71.5751C33.393 71.3578 33.2715 71.0632 33.2715 70.7559V63.178C33.2715 62.8708 33.393 62.5761 33.6092 62.3589C33.8255 62.1416 34.1188 62.0195 34.4246 62.0195H46.158C46.4638 62.0195 46.7571 62.1416 46.9734 62.3589C47.1896 62.5761 47.3111 62.8708 47.3111 63.178V70.7559C47.3111 71.0632 47.1896 71.3578 46.9734 71.5751C46.7571 71.7924 46.4638 71.9144 46.158 71.9144ZM35.5778 69.5974H45.0048V64.3366H35.5778V69.5974Z" fill="#FF8767"/>
<path d="M34.4278 68.1246H18.2352C17.9293 68.1246 17.636 68.0026 17.4198 67.7853C17.2035 67.5681 17.082 67.2734 17.082 66.9661C17.082 66.6589 17.2035 66.3642 17.4198 66.1469C17.636 65.9297 17.9293 65.8076 18.2352 65.8076H34.4278C34.7336 65.8076 35.0269 65.9297 35.2432 66.1469C35.4594 66.3642 35.5809 66.6589 35.5809 66.9661C35.5809 67.2734 35.4594 67.5681 35.2432 67.7853C35.0269 68.0026 34.7336 68.1246 34.4278 68.1246Z" fill="#FF8767"/>
<path d="M62.7656 68.1246H46.5731C46.2672 68.1246 45.9739 68.0026 45.7577 67.7853C45.5414 67.5681 45.4199 67.2734 45.4199 66.9661C45.4199 66.6589 45.5414 66.3642 45.7577 66.1469C45.9739 65.9297 46.2672 65.8076 46.5731 65.8076H62.7656C63.0715 65.8076 63.3648 65.9297 63.581 66.1469C63.7973 66.3642 63.9188 66.6589 63.9188 66.9661C63.9188 67.2734 63.7973 67.5681 63.581 67.7853C63.3648 68.0026 63.0715 68.1246 62.7656 68.1246Z" fill="#FF8767"/>
</svg>
