<svg width="84" height="84" viewBox="0 0 84 84" fill="none" xmlns="http://www.w3.org/2000/svg">
<path d="M17.5355 63.1147C17.5355 62.4513 16.9977 61.9135 16.3343 61.9135C9.20352 61.9135 3.40234 56.1165 3.40234 48.9912C3.40234 43.9365 6.37853 39.3171 10.9843 37.2227C11.5883 36.9482 11.8552 36.236 11.5806 35.6321C11.3061 35.0281 10.5937 34.7611 9.98989 35.0358C4.52872 37.5192 1 42.9969 1 48.9912C1 57.4412 7.87887 64.3159 16.3343 64.3159C16.9977 64.3159 17.5355 63.7781 17.5355 63.1147Z" fill="#FF8767" stroke="#FF8767" stroke-width="0.5"/>
<path d="M26.1522 38.023C27.8842 28.3507 36.2904 21.3306 46.1404 21.3306C53.6727 21.3306 60.5492 25.4637 64.086 32.1172C64.3976 32.7029 65.1247 32.9254 65.7105 32.614C66.2962 32.3027 66.5187 31.5754 66.2073 30.9896C65.5347 29.7242 64.7539 28.5403 63.8799 27.4469V11.4353L66.7858 7.97272C67.1788 8.12007 67.604 8.20062 68.048 8.20062C70.035 8.20062 71.6515 6.58561 71.6515 4.60031C71.6515 2.61502 70.0349 1 68.048 1C66.0611 1 64.4445 2.61502 64.4445 4.60031C64.4445 5.26752 64.6271 5.89293 64.945 6.42914L61.7587 10.2258C61.5772 10.4422 61.4776 10.7156 61.4776 10.9979V24.8774C59.3686 22.9465 56.9149 21.4335 54.2464 20.4165V12.0327C55.6445 11.5373 56.6487 10.2026 56.6487 8.63801C56.6487 6.65272 55.0322 5.0377 53.0452 5.0377C51.0581 5.0377 49.4417 6.65272 49.4417 8.63801C49.4417 10.2026 50.4459 11.5373 51.844 12.0327V19.6513C50.0072 19.1768 48.0935 18.9282 46.1404 18.9282C45.146 18.9282 44.1645 18.9923 43.2007 19.1167V7.99498C44.5989 7.49962 45.6031 6.16488 45.6031 4.60031C45.6031 2.61502 43.9866 1 41.9995 1C40.0125 1 38.396 2.61502 38.396 4.60031C38.396 6.16488 39.4002 7.49962 40.7984 7.99498V19.5591C37.613 20.3248 34.6745 21.7619 32.155 23.7262V12.0327C33.5532 11.5373 34.5574 10.2026 34.5574 8.63801C34.5574 6.65272 32.9409 5.0377 30.9539 5.0377C28.9668 5.0377 27.3504 6.65272 27.3504 8.63801C27.3504 10.2026 28.3545 11.5373 29.7527 12.0327V25.891C27.1348 28.6121 25.1825 32.001 24.1794 35.8207C23.6184 35.485 23.0394 35.1874 22.4453 34.9286V10.9981C22.4453 10.7156 22.3456 10.4422 22.1642 10.226L18.978 6.4293C19.2959 5.89293 19.4785 5.26752 19.4785 4.60031C19.4785 2.61502 17.8621 1 15.875 1C13.8879 1 12.2715 2.61502 12.2715 4.60031C12.2715 6.58561 13.8879 8.20062 15.875 8.20062C16.3188 8.20062 16.7442 8.12007 17.137 7.97272L20.0429 11.4353V34.115C18.8437 33.8186 17.6013 33.6674 16.3337 33.6674C15.6703 33.6674 15.1325 34.2052 15.1325 34.8686C15.1325 35.5319 15.6703 36.0697 16.3337 36.0697C19.2231 36.0697 21.9553 37.0007 24.2353 38.762C24.4488 38.9269 24.7079 39.0126 24.9698 39.0126C25.1154 39.0126 25.2618 38.9862 25.4017 38.9322C25.7936 38.781 26.0781 38.4364 26.1522 38.023ZM68.048 3.40234C68.7104 3.40234 69.2492 3.93967 69.2492 4.60031C69.2492 5.26096 68.7104 5.79828 68.048 5.79828C67.3856 5.79828 66.8468 5.26096 66.8468 4.60031C66.8468 3.93967 67.3856 3.40234 68.048 3.40234ZM53.0452 7.43988C53.7076 7.43988 54.2464 7.97737 54.2464 8.63785C54.2464 9.29834 53.7076 9.83582 53.0452 9.83582C52.3828 9.83582 51.844 9.2985 51.844 8.63785C51.844 7.97721 52.3828 7.43988 53.0452 7.43988ZM41.9995 3.40234C42.6619 3.40234 43.2007 3.93967 43.2007 4.60031C43.2007 5.26096 42.6619 5.79828 41.9995 5.79828C41.3371 5.79828 40.7984 5.26096 40.7984 4.60031C40.7984 3.93967 41.3371 3.40234 41.9995 3.40234ZM30.9539 7.43988C31.6163 7.43988 32.155 7.97737 32.155 8.63785C32.155 9.29834 31.6163 9.83582 30.9539 9.83582C30.2915 9.83582 29.7527 9.2985 29.7527 8.63785C29.7527 7.97721 30.2915 7.43988 30.9539 7.43988ZM14.6738 4.60031C14.6738 3.93967 15.2126 3.40234 15.875 3.40234C16.5374 3.40234 17.0762 3.93967 17.0762 4.60031C17.0762 5.26096 16.5374 5.79828 15.875 5.79828C15.2126 5.79828 14.6738 5.2608 14.6738 4.60031Z" fill="#FF8767" stroke="#FF8767" stroke-width="0.5"/>
<path d="M71.4324 41.1938C70.5555 41.1938 69.692 41.2907 68.8499 41.4829C68.8398 39.8102 68.6465 38.1438 68.2755 36.5275C68.1271 35.8807 67.4824 35.477 66.836 35.6255C66.1895 35.7739 65.7856 36.4184 65.934 37.0649C66.275 38.5501 66.4478 40.0836 66.4478 41.6224C66.4478 42.0918 66.4312 42.5703 66.3983 43.0445C66.3698 43.4565 66.555 43.8543 66.8886 44.0977C67.2222 44.3413 67.6575 44.3961 68.0411 44.2435C69.1194 43.8141 70.2604 43.5963 71.4322 43.5963C76.4864 43.5963 80.5981 47.7049 80.5981 52.7553C80.5981 57.8057 76.4863 61.9143 71.4322 61.9143H67.493C66.8296 61.9143 66.2918 62.4521 66.2918 63.1155C66.2918 63.7788 66.8296 64.3166 67.493 64.3166H71.4322C77.8111 64.3166 83.0005 59.1303 83.0005 52.7553C83.0006 46.3803 77.8111 41.1938 71.4324 41.1938Z" fill="#FF8767" stroke="#FF8767" stroke-width="0.5"/>
<path d="M57.9386 61.9141H46.8066C46.1433 61.9141 45.6055 62.4519 45.6055 63.1152C45.6055 63.7786 46.1433 64.3164 46.8066 64.3164H51.844V76.0048C50.4459 76.5001 49.4417 77.8349 49.4417 79.3994C49.4417 81.3847 51.0581 82.9998 53.0452 82.9998C55.0323 82.9998 56.6487 81.3847 56.6487 79.3994C56.6487 77.8347 55.6445 76.5 54.2464 76.0048V64.3164H57.9386C58.602 64.3164 59.1398 63.7786 59.1398 63.1152C59.1398 62.4519 58.602 61.9141 57.9386 61.9141ZM53.0452 80.5974C52.3828 80.5974 51.844 80.0601 51.844 79.3994C51.844 78.7388 52.3828 78.2015 53.0452 78.2015C53.7076 78.2015 54.2464 78.739 54.2464 79.3994C54.2464 80.0599 53.7076 80.5974 53.0452 80.5974Z" fill="#FF8767" stroke="#FF8767" stroke-width="0.5"/>
<path d="M37.1897 61.9141H26.252C25.5886 61.9141 25.0508 62.4519 25.0508 63.1152C25.0508 63.7786 25.5886 64.3164 26.252 64.3164H29.7536V76.0048C28.3554 76.5001 27.3513 77.8349 27.3513 79.3994C27.3513 81.3847 28.9677 82.9998 30.9548 82.9998C32.9418 82.9998 34.5583 81.3847 34.5583 79.3994C34.5583 77.8347 33.5541 76.5 32.156 76.0048V64.3164H37.1897C37.853 64.3164 38.3908 63.7786 38.3908 63.1152C38.3908 62.4519 37.853 61.9141 37.1897 61.9141ZM30.9548 80.5974C30.2924 80.5974 29.7536 80.0601 29.7536 79.3994C29.7536 78.7388 30.2924 78.2015 30.9548 78.2015C31.6172 78.2015 32.156 78.739 32.156 79.3994C32.156 80.0599 31.6172 80.5974 30.9548 80.5974Z" fill="#FF8767" stroke="#FF8767" stroke-width="0.5"/>
<path d="M21.3204 51.5518C19.3334 51.5518 17.7169 53.1668 17.7169 55.1521C17.7169 56.7166 18.7211 58.0514 20.1193 58.5467V74.9644L15.0311 81.0271C14.6046 81.5353 14.6709 82.2928 15.1791 82.7193C15.4041 82.9081 15.6781 83.0004 15.9506 83.0004C16.2933 83.0004 16.6338 82.8545 16.8713 82.5713L22.2405 76.1735C22.422 75.9572 22.5216 75.6838 22.5216 75.4014V58.5466C23.9198 58.0512 24.924 56.7165 24.924 55.1519C24.924 53.1668 23.3075 51.5518 21.3204 51.5518ZM21.3204 56.35C20.658 56.35 20.1193 55.8127 20.1193 55.1521C20.1193 54.4914 20.658 53.9541 21.3204 53.9541C21.9829 53.9541 22.5216 54.4916 22.5216 55.1521C22.5216 55.8126 21.9829 56.35 21.3204 56.35Z" fill="#FF8767" stroke="#FF8767" stroke-width="0.5"/>
<path d="M42 51.5518C40.0129 51.5518 38.3965 53.1668 38.3965 55.1521C38.3965 56.7166 39.4007 58.0514 40.7988 58.5467V81.7993C40.7988 82.4627 41.3366 83.0005 42 83.0005C42.6634 83.0005 43.2012 82.4627 43.2012 81.7993V58.5467C44.5993 58.0514 45.6035 56.7166 45.6035 55.1521C45.6035 53.1668 43.9871 51.5518 42 51.5518ZM42 56.35C41.3376 56.35 40.7988 55.8127 40.7988 55.1521C40.7988 54.4914 41.3376 53.9541 42 53.9541C42.6624 53.9541 43.2012 54.4916 43.2012 55.1521C43.2012 55.8126 42.6624 56.35 42 56.35Z" fill="#FF8767" stroke="#FF8767" stroke-width="0.5"/>
<path d="M63.8809 74.9644V58.5467C65.279 58.0514 66.2832 56.7166 66.2832 55.1521C66.2832 53.1668 64.6667 51.5518 62.6797 51.5518C60.6926 51.5518 59.0762 53.1668 59.0762 55.1521C59.0762 56.7166 60.0804 58.0514 61.4785 58.5467V75.4016C61.4785 75.6841 61.5781 75.9575 61.7596 76.1737L67.1288 82.5715C67.3665 82.8546 67.7068 83.0005 68.0496 83.0005C68.322 83.0005 68.596 82.9083 68.821 82.7194C69.3292 82.2929 69.3954 81.5352 68.969 81.0272L63.8809 74.9644ZM62.6797 53.9541C63.3421 53.9541 63.8809 54.4916 63.8809 55.1521C63.8809 55.8126 63.3421 56.35 62.6797 56.35C62.0173 56.35 61.4785 55.8127 61.4785 55.1521C61.4785 54.4914 62.0173 53.9541 62.6797 53.9541Z" fill="#FF8767" stroke="#FF8767" stroke-width="0.5"/>
</svg>
