<svg width="127" height="118" viewBox="0 0 127 118" fill="none" xmlns="http://www.w3.org/2000/svg">
<path d="M3.12791 35.3497C1.40222 37.0693 1.40222 39.8637 3.12791 41.5832L8.84801 47.2829C9.71207 48.1428 11.1119 48.1428 11.9759 47.2829L14.836 44.4331L21.472 51.0454V57.1218C21.4655 60.937 22.74 64.6446 25.0902 67.6548L22.12 70.6155C19.6974 73.0284 18.9727 76.6574 20.2828 79.8107C21.594 82.963 24.683 85.0186 28.108 85.0175C28.2495 85.0175 28.391 84.9842 28.5324 84.9756C28.3985 87.2819 29.228 89.5409 30.8222 91.2187C32.4175 92.8955 34.6371 93.8426 36.956 93.834C37.0975 93.834 37.239 93.8006 37.3805 93.792C37.2465 96.0984 38.076 98.3573 39.6702 100.035C41.2655 101.712 43.4851 102.659 45.804 102.65C45.9455 102.65 46.087 102.617 46.2285 102.608C46.0448 106.089 48.0333 109.322 51.2292 110.739C54.4252 112.157 58.1666 111.466 60.6399 109L63.7365 105.915C66.4097 107.459 69.718 107.417 72.3512 105.806C74.9845 104.195 76.5182 101.274 76.3454 98.2002C76.4869 98.2002 76.6284 98.2422 76.7699 98.2422C79.0888 98.2508 81.3083 97.3037 82.9025 95.627C84.4978 93.9491 85.3262 91.6901 85.1934 89.3838C85.3349 89.3838 85.4764 89.4258 85.6179 89.4258C87.9368 89.4344 90.1563 88.4873 91.7505 86.8105C93.3458 85.1327 94.1742 82.8737 94.0414 80.5673C94.1829 80.5673 94.3244 80.6093 94.4659 80.6093C97.4825 80.6147 100.273 79.0144 101.783 76.412C103.294 73.8097 103.296 70.6015 101.786 67.9992L102.67 67.1178C105.905 63.8729 107.727 59.4895 107.74 54.9155V48.8413L112.164 44.4331L115.024 47.2829C115.888 48.1428 117.288 48.1428 118.152 47.2829L125.43 40.0304C126.296 39.1676 126.296 37.7654 125.43 36.9025C124.569 36.0441 123.175 36.0441 122.314 36.9025L116.588 42.6078L88.7479 14.867L98.8864 4.76468C99.7524 3.90184 99.7524 2.49963 98.8864 1.63679C98.0249 0.778302 96.6313 0.778302 95.7697 1.63679L84.0561 13.3086C83.192 14.1696 83.192 15.5644 84.0561 16.4254L85.8101 18.1732L78.0681 25.8876H67.1723C65.0888 25.8929 63.0485 26.4838 61.288 27.5934C59.5318 26.4795 57.4926 25.8876 55.4102 25.8876H44.5079L38.9779 20.3773L42.9439 16.4254C43.8069 15.5644 43.8069 14.1696 42.9439 13.3086L31.2303 1.63679C30.3687 0.7783 28.9751 0.778302 28.1136 1.63679C27.2476 2.49963 27.2476 3.90184 28.1136 4.76468L38.2521 14.867L10.412 42.6078L3.12791 35.3497ZM42.9439 97.0648C41.367 95.4892 41.367 92.9396 42.9439 91.3651L46.5644 87.7565C46.9445 89.1179 47.6671 90.3599 48.664 91.3651L51.5241 94.215L48.664 97.0648C47.0828 98.6361 44.5241 98.6361 42.9439 97.0648ZM51.7919 105.881C50.215 104.306 50.215 101.756 51.7919 100.182L54.652 97.3317L60.3721 103.031L57.512 105.881C55.9308 107.453 53.3721 107.453 51.7919 105.881ZM70.784 101.473C69.2028 103.044 66.6441 103.044 65.064 101.473L51.7919 88.2484C50.269 86.6652 50.296 84.1598 51.8524 82.6089C53.4088 81.0581 55.9232 81.0312 57.512 82.5487L70.784 95.7733C72.361 97.3478 72.361 99.8974 70.784 101.473ZM79.6321 92.6566C78.0508 94.2279 75.4921 94.2279 73.912 92.6566L60.6399 79.4319C59.117 77.8488 59.144 75.3433 60.7004 73.7925C62.2568 72.2417 64.7713 72.2148 66.3601 73.7322L79.6321 86.9569C81.209 88.5314 81.209 91.081 79.6321 92.6566ZM88.4801 83.8401C86.8988 85.4114 84.3401 85.4114 82.76 83.8401L69.488 70.6155C67.965 69.0324 67.9921 66.5269 69.5484 64.9761C71.1048 63.4252 73.6193 63.3983 75.2081 64.9158L88.4801 78.1404C90.057 79.715 90.057 82.2645 88.4801 83.8401ZM97.3281 75.0237C95.7468 76.595 93.1881 76.595 91.608 75.0237L78.336 61.799C76.813 60.2159 76.84 57.7105 78.3964 56.1596C79.9528 54.6088 82.4673 54.5819 84.0561 56.0994L97.3281 69.324C98.905 70.8985 98.905 73.4481 97.3281 75.0237ZM78.984 30.2958C79.5705 30.2958 80.1332 30.0633 80.548 29.65L88.938 21.2899L109.036 41.3163L103.964 46.3703C103.549 46.7836 103.316 47.3443 103.316 47.9287V54.9155C103.306 58.3218 101.95 61.587 99.5401 64.0032L98.892 64.6489L87.184 52.9826C84.7149 50.5041 80.966 49.8045 77.7657 51.2241C74.5643 52.6447 72.577 55.8884 72.7725 59.3743C70.3855 59.2333 68.0515 60.1169 66.3611 61.8023C64.6697 63.4866 63.783 65.8123 63.9245 68.1908C61.5375 68.0498 59.2034 68.9333 57.5131 70.6187C55.8217 72.303 54.935 74.6287 55.0765 77.0072C52.6895 76.8694 50.3565 77.7509 48.6619 79.4319L39.8139 88.2484C38.2251 89.7648 35.7106 89.7378 34.1543 88.1881C32.5979 86.6372 32.5709 84.1318 34.0938 82.5487L47.3658 69.324L44.2379 66.2073L30.9659 79.4319C29.3771 80.9483 26.8626 80.9214 25.3062 79.3717C23.7499 77.8208 23.7229 75.3154 25.2458 73.7322L41.6144 57.422C44.9118 59.3431 49.0971 58.7996 51.7898 56.0994L63.2278 44.7021C66.9433 40.9902 67.5255 35.1872 64.6211 30.8156C65.429 30.4755 66.2952 30.299 67.1723 30.2958H78.984ZM42.028 29.65C42.4428 30.0633 43.0055 30.2958 43.592 30.2958H55.4102C58.0953 30.2958 60.5157 31.9069 61.5429 34.3779C62.57 36.85 62.0009 39.6945 60.1021 41.5854L48.664 52.9826C47.0752 54.499 44.5608 54.4721 43.0044 52.9223C41.448 51.3715 41.421 48.866 42.9439 47.2829L51.7919 38.4665L48.664 35.3497L39.816 44.1662C37.131 46.861 36.5866 51.0142 38.4886 54.3053L28.2538 64.5058C26.719 62.3479 25.8949 59.7671 25.896 57.1218V50.1328C25.896 49.5484 25.6627 48.9877 25.2479 48.5744L17.9639 41.3163L35.85 23.494L42.028 29.65Z" fill="#FF8767"/>
<path d="M81.2023 109.648C80.3364 108.785 80.3364 107.383 81.2023 106.52L106.83 80.9831C107.692 80.1243 109.086 80.1244 109.947 80.9833C110.813 81.8463 110.813 83.2486 109.947 84.1114L84.3191 109.648C83.4575 110.507 82.0639 110.507 81.2023 109.648Z" fill="#FF8767"/>
<path d="M74.5206 116.214C73.6803 115.376 73.6802 114.016 74.5204 113.178C75.3564 112.345 76.709 112.345 77.5453 113.178L77.6377 113.27C78.4784 114.107 78.4785 115.468 77.638 116.306C76.8018 117.139 75.4492 117.139 74.613 116.306L74.5206 116.214Z" fill="#FF8767"/>
</svg>
