<svg width="85" height="68" viewBox="0 0 85 68" fill="none" xmlns="http://www.w3.org/2000/svg">
<g clip-path="url(#clip0)">
<path d="M79.5506 14.5782L76.1106 13.7813C76.0025 10.4303 73.6446 7.50828 70.2596 6.74106C66.9173 5.98672 63.5446 7.57914 61.977 10.5063L50.8931 7.93795V7.69445C50.8931 3.45251 47.4246 0.000976562 43.1613 0.000976562H27.4491C23.1884 0.000976562 19.7218 3.45251 19.7218 7.69445V10.0348L5.18821 14.6039C1.74558 15.692 0 17.5388 0 20.093V61.9024C0 64.9616 2.49767 67.4501 5.56749 67.4501H60.977C61.6683 67.4501 62.2288 66.8922 62.2288 66.2036C62.2288 65.5156 61.6683 64.9577 60.977 64.9577H5.56749C3.87821 64.9577 2.50414 63.5869 2.50414 61.9024V20.093C2.50414 19.2234 2.86141 17.955 5.94482 16.9803L19.7218 12.6489V13.3278C19.7218 15.6424 21.292 19.0855 25.6181 19.0855H44.9975C49.3236 19.0855 50.8938 15.6424 50.8938 13.3278V10.4973L78.9817 17.0055C79.9888 17.2399 82.3298 18.0097 82.3298 20.093V61.9024C82.3298 63.5869 80.9558 64.9577 79.2665 64.9577H66.7102C66.0189 64.9577 65.4584 65.5156 65.4584 66.2036C65.4584 66.8922 66.0189 67.4501 66.7102 67.4501H79.2665C82.337 67.4501 84.8346 64.9616 84.8346 61.9024V20.093C84.834 17.41 82.8593 15.348 79.5506 14.5782ZM48.389 13.3285C48.389 13.4612 48.3508 16.5932 44.9969 16.5932H25.6181C22.2648 16.5932 22.2259 13.4612 22.2259 13.3285V10.9527C22.2259 10.9469 22.2259 10.9418 22.2259 10.936V7.69445C22.2259 4.82719 24.5689 2.49396 27.4491 2.49396H43.1613C46.0434 2.49396 48.389 4.82719 48.389 7.69445V13.3285ZM69.7049 9.17156C71.7295 9.63021 73.2039 11.2452 73.5385 13.1855L64.5491 11.1022C65.6973 9.5265 67.7102 8.72127 69.7049 9.17156Z" fill="#FF8767"/>
<path d="M41.1702 5.0498H29.4449C25.6754 5.0498 25.1123 7.52025 25.1123 8.9935V11.9574C25.1123 13.1008 26.0469 14.031 27.1958 14.031H43.4193C44.5656 14.031 45.4976 13.1008 45.4976 11.9574V8.9935C45.4976 7.52025 44.9358 5.0498 41.1702 5.0498ZM42.9935 11.5387H27.6165V8.9935C27.6165 8.09036 27.7401 7.54216 29.4449 7.54216H41.1702C42.8711 7.54216 42.9935 8.09036 42.9935 8.9935V11.5387Z" fill="#FF8767"/>
<path d="M28.4333 22.8461C28.4333 22.1575 27.8727 21.5996 27.1815 21.5996H7.8351C6.68885 21.5996 5.75684 22.5279 5.75684 23.6687V58.2459C5.75684 59.3893 6.68885 60.3195 7.8351 60.3195H52.8999C54.0487 60.3195 54.9834 59.3893 54.9834 58.2459V23.6687C54.9834 22.5279 54.0487 21.5996 52.8999 21.5996H32.9147C32.2234 21.5996 31.6629 22.1575 31.6629 22.8461C31.6629 23.5341 32.2234 24.092 32.9147 24.092H52.4792V48.9748L45.4095 41.6543C43.7157 39.7185 41.9261 38.693 40.0886 38.6047C38.3637 38.521 36.6544 39.2682 35.0098 40.8227L29.652 45.7101L27.8617 43.8522C26.5026 42.3017 25.0547 41.4797 23.5577 41.4102C22.148 41.3444 20.761 41.9455 19.438 43.1978L11.0764 50.8242H8.26098V24.092H27.1815C27.8727 24.092 28.4333 23.5341 28.4333 22.8461ZM36.7101 42.6521C36.7159 42.647 36.7211 42.6418 36.7269 42.636C37.8757 41.5493 38.9404 41.0443 39.9682 41.0945C41.1035 41.1486 42.3047 41.8946 43.539 43.3118C43.5532 43.3279 43.5675 43.3433 43.5824 43.3588L50.7912 50.8236H27.7524L36.7101 42.6521ZM21.1389 45.0272C21.1448 45.0214 21.1512 45.0156 21.1571 45.0098C21.9797 44.2291 22.726 43.8638 23.4399 43.8993C24.2334 43.9366 25.0922 44.4784 25.9912 45.5097C26.0048 45.5252 26.0191 45.5406 26.0333 45.5555L27.8054 47.3946L24.0463 50.8236H14.7831L21.1389 45.0272ZM52.4786 53.3166V57.8271H8.26098V53.3166H52.4786Z" fill="#FF8767"/>
<path d="M12.0439 32.4063C12.0439 35.1866 14.3164 37.449 17.1092 37.449C19.902 37.449 22.1738 35.1866 22.1738 32.4063C22.1738 29.626 19.902 27.3643 17.1092 27.3643C14.3164 27.3643 12.0439 29.626 12.0439 32.4063ZM19.6703 32.4063C19.6703 33.8126 18.5208 34.9566 17.1092 34.9566C15.6976 34.9566 14.5487 33.8126 14.5487 32.4063C14.5487 31 15.6976 29.8566 17.1092 29.8566C18.5208 29.8566 19.6703 31 19.6703 32.4063Z" fill="#FF8767"/>
<path d="M63.1976 37.7617C65.6383 37.7617 67.6247 35.7847 67.6247 33.3555C67.6247 30.9282 65.6383 28.9531 63.1976 28.9531C60.7595 28.9531 58.7764 30.9282 58.7764 33.3555C58.7757 35.7847 60.7595 37.7617 63.1976 37.7617ZM63.1976 31.4455C64.2578 31.4455 65.1199 32.3022 65.1199 33.3548C65.1199 34.4107 64.2578 35.2693 63.1976 35.2693C62.1407 35.2693 61.2805 34.4107 61.2805 33.3548C61.2805 32.3022 62.14 31.4455 63.1976 31.4455Z" fill="#FF8767"/>
<path d="M74.684 37.7617C77.1247 37.7617 79.1104 35.7847 79.1104 33.3555C79.1104 30.9282 77.1247 28.9531 74.684 28.9531C72.2458 28.9531 70.2627 30.9282 70.2627 33.3555C70.262 35.7847 72.2458 37.7617 74.684 37.7617ZM74.684 31.4455C75.7441 31.4455 76.6062 32.3022 76.6062 33.3548C76.6062 34.4107 75.7441 35.2693 74.684 35.2693C73.627 35.2693 72.7662 34.4107 72.7662 33.3548C72.7662 32.3022 73.6264 31.4455 74.684 31.4455Z" fill="#FF8767"/>
<path d="M66.372 25.8166C67.0632 25.8166 67.6237 25.2587 67.6237 24.5707C67.6237 23.8821 67.0632 23.3242 66.372 23.3242H60.0278C59.3359 23.3242 58.7754 23.8821 58.7754 24.5707C58.7754 25.2587 59.3359 25.8166 60.0278 25.8166H66.372Z" fill="#FF8767"/>
<path d="M77.8577 25.8166C78.5496 25.8166 79.1101 25.2587 79.1101 24.5707C79.1101 23.8821 78.5496 23.3242 77.8577 23.3242H71.5141C70.8222 23.3242 70.2617 23.8821 70.2617 24.5707C70.2617 25.2587 70.8222 25.8166 71.5141 25.8166H77.8577Z" fill="#FF8767"/>
<path d="M68.415 59.2488C73.732 59.2488 78.0581 54.9444 78.0581 49.6531C78.0581 44.3617 73.732 40.0566 68.415 40.0566C63.0999 40.0566 58.7764 44.3617 58.7764 49.6531C58.7764 54.9444 63.0999 59.2488 68.415 59.2488ZM68.415 42.5496C72.3515 42.5496 75.554 45.7364 75.554 49.6531C75.554 53.5697 72.3515 56.7565 68.415 56.7565C64.4804 56.7565 61.2805 53.5697 61.2805 49.6531C61.2805 45.7364 64.4804 42.5496 68.415 42.5496Z" fill="#FF8767"/>
<path d="M65.2449 50.8988H67.1627V52.8133C67.1627 53.5013 67.7232 54.0592 68.4151 54.0592C69.1063 54.0592 69.6668 53.5013 69.6668 52.8133V50.8988H71.5891C72.281 50.8988 72.8415 50.3409 72.8415 49.653C72.8415 48.9643 72.281 48.4065 71.5891 48.4065H69.6668V46.4926C69.6668 45.804 69.1063 45.2461 68.4151 45.2461C67.7232 45.2461 67.1627 45.804 67.1627 46.4926V48.4065H65.2449C64.5537 48.4065 63.9932 48.9643 63.9932 49.653C63.9932 50.3409 64.5537 50.8988 65.2449 50.8988Z" fill="#FF8767"/>
</g>
<defs>
<clipPath id="clip0">
<rect width="85" height="67.6136" fill="white"/>
</clipPath>
</defs>
</svg>
