<svg width="107" height="74" viewBox="0 0 107 74" fill="none" xmlns="http://www.w3.org/2000/svg">
<g clip-path="url(#clip0)">
<path d="M48.5872 50.3694H58.4117C61.4431 50.3694 63.9091 47.9028 63.9091 44.8706C63.9091 41.8387 61.4431 39.3721 58.4117 39.3721H48.5872C45.5559 39.3721 43.0898 41.8387 43.0898 44.8706C43.0898 47.9028 45.5559 50.3694 48.5872 50.3694ZM48.5872 42.5077H58.4117C59.7143 42.5077 60.7743 43.5677 60.7743 44.8706C60.7743 46.1736 59.7146 47.2338 58.4117 47.2338H48.5872C47.2846 47.2338 46.2246 46.1738 46.2246 44.8706C46.2246 43.5677 47.2846 42.5077 48.5872 42.5077Z" fill="#FF8767"/>
<path d="M53.5001 27.3382C57.5281 27.3382 60.8052 24.0602 60.8052 20.0314C60.8052 16.0026 57.5281 12.7246 53.5001 12.7246C49.4724 12.7246 46.1953 16.0026 46.1953 20.0314C46.1953 24.0602 49.4724 27.3382 53.5001 27.3382ZM53.5001 15.8602C55.7996 15.8602 57.6704 17.7313 57.6704 20.0314C57.6704 22.3314 55.7996 24.2026 53.5001 24.2026C51.2007 24.2026 49.3301 22.3314 49.3301 20.0314C49.3301 17.7313 51.2007 15.8602 53.5001 15.8602Z" fill="#FF8767"/>
<path d="M51.6748 9.96762H55.326C56.1918 9.96762 56.8933 9.26588 56.8933 8.39983C56.8933 7.53378 56.1918 6.83203 55.326 6.83203H51.6748C50.809 6.83203 50.1074 7.53378 50.1074 8.39983C50.1074 9.26588 50.809 9.96762 51.6748 9.96762Z" fill="#FF8767"/>
<path d="M45.0752 34.6825H49.4367C50.3025 34.6825 51.0041 33.9807 51.0041 33.1147C51.0041 32.2486 50.3025 31.5469 49.4367 31.5469H45.0752C44.2094 31.5469 43.5078 32.2486 43.5078 33.1147C43.5078 33.9807 44.2094 34.6825 45.0752 34.6825Z" fill="#FF8767"/>
<path d="M55.9961 33.1147C55.9961 33.9807 56.6977 34.6825 57.5635 34.6825H61.925C62.7908 34.6825 63.4924 33.9807 63.4924 33.1147C63.4924 32.2486 62.7908 31.5469 61.925 31.5469H57.5635C56.6979 31.5469 55.9961 32.2486 55.9961 33.1147Z" fill="#FF8767"/>
<path d="M14.1363 58.7895C18.9726 58.7895 22.9072 54.8539 22.9072 50.0163C22.9072 45.1787 18.9726 41.2432 14.1363 41.2432C9.29978 41.2432 5.36523 45.1787 5.36523 50.0163C5.36523 54.8539 9.29978 58.7895 14.1363 58.7895ZM14.1363 44.3788C17.2441 44.3788 19.7724 46.9077 19.7724 50.0163C19.7724 53.125 17.2441 55.6539 14.1363 55.6539C11.0285 55.6539 8.5 53.125 8.5 50.0163C8.5 46.9077 11.0285 44.3788 14.1363 44.3788Z" fill="#FF8767"/>
<path d="M14.1357 51.5846C14.9711 51.5846 15.7031 50.9076 15.7031 50.0169C15.7031 49.0308 14.8016 48.2873 13.8283 48.4783C13.077 48.6376 12.5684 49.2785 12.5684 50.0169C12.5684 50.9 13.2923 51.5846 14.1357 51.5846Z" fill="#FF8767"/>
<path d="M8.0332 39.3256V38.3647C8.0332 37.4986 7.33164 36.7969 6.46582 36.7969C5.6 36.7969 4.89844 37.4986 4.89844 38.3647V39.3256C4.89844 40.1917 5.6 40.8934 6.46582 40.8934C7.33164 40.8934 8.0332 40.1917 8.0332 39.3256Z" fill="#FF8767"/>
<path d="M92.8646 41.2432C88.0283 41.2432 84.0938 45.1787 84.0938 50.0163C84.0938 54.8539 88.0283 58.7895 92.8646 58.7895C97.7009 58.7895 101.635 54.8539 101.635 50.0163C101.635 45.1787 97.7009 41.2432 92.8646 41.2432ZM92.8646 55.6539C89.7568 55.6539 87.2285 53.125 87.2285 50.0163C87.2285 46.9077 89.7568 44.3788 92.8646 44.3788C95.9724 44.3788 98.5007 46.9077 98.5007 50.0163C98.5007 53.125 95.9724 55.6539 92.8646 55.6539Z" fill="#FF8767"/>
<path d="M92.5571 48.4805C91.8542 48.6147 91.2969 49.2474 91.2969 50.0171C91.2969 50.9014 92.0229 51.5849 92.8643 51.5849C93.7035 51.5849 94.4316 50.9057 94.4316 50.0171C94.4314 49.0024 93.4931 48.2886 92.5571 48.4805Z" fill="#FF8767"/>
<path d="M102.103 39.3256V38.3647C102.103 37.4986 101.401 36.7969 100.535 36.7969C99.6693 36.7969 98.9678 37.4986 98.9678 38.3647V39.3256C98.9678 40.1917 99.6693 40.8934 100.535 40.8934C101.401 40.8934 102.103 40.1917 102.103 39.3256Z" fill="#FF8767"/>
<path d="M105.433 53.0204C106.298 53.0204 107 52.3187 107 51.4526V35.5355C107 33.3362 105.211 31.5468 103.012 31.5468H82.7164C82.4234 31.5468 82.1386 31.5807 81.8634 31.6411V4.24751C81.8634 1.9232 79.9729 0.0322266 77.6494 0.0322266H29.3506C27.0271 0.0322266 25.1366 1.9232 25.1366 4.24751V11.1579C25.1366 12.024 25.8382 12.7257 26.704 12.7257C27.5698 12.7257 28.2714 12.024 28.2714 11.1579V4.24751C28.2714 3.65216 28.7554 3.16782 29.3506 3.16782H34.8575V53.2148C34.8575 55.6196 36.8134 57.5758 39.2176 57.5758H67.7826C70.1868 57.5758 72.1424 55.6196 72.1424 53.2148V3.16782H77.6494C78.2446 3.16782 78.7286 3.65216 78.7286 4.24751V69.7532C78.7286 70.3485 78.2446 70.8327 77.6494 70.8327H29.3506C28.7554 70.8327 28.2714 70.3485 28.2714 69.7532V17.4264C28.2714 16.5604 27.5698 15.8586 26.704 15.8586C25.8382 15.8586 25.1366 16.5604 25.1366 17.4264V31.6411C24.8614 31.5809 24.5766 31.5468 24.2836 31.5468H3.98784C1.78912 31.547 0 33.3362 0 35.5357V64.4992C0 66.6985 1.78912 68.4881 3.98784 68.4881H8.0413C8.90712 68.4881 9.60868 67.7863 9.60868 66.9203C9.60868 66.0542 8.90712 65.3525 8.0413 65.3525H3.98784C3.51742 65.3525 3.13477 64.9697 3.13477 64.4992V35.5357C3.13477 35.0654 3.51742 34.6826 3.98784 34.6826H24.2836C24.754 34.6826 25.1366 35.0654 25.1366 35.5357V64.4992C25.1366 64.9697 24.754 65.3525 24.2836 65.3525H14.3079C13.4421 65.3525 12.7405 66.0542 12.7405 66.9203C12.7405 67.7863 13.4421 68.4881 14.3079 68.4881H24.2836C24.5766 68.4881 24.8614 68.4542 25.1366 68.3938V69.7532C25.1366 72.0773 27.0271 73.9683 29.3506 73.9683H77.6492C79.9727 73.9683 81.8632 72.0773 81.8632 69.7532V68.3938C82.1384 68.454 82.4232 68.4881 82.7162 68.4881H103.012C105.211 68.4881 107 66.6985 107 64.4992V57.7213C107 56.8552 106.298 56.1535 105.432 56.1535C104.567 56.1535 103.865 56.8552 103.865 57.7213V64.4992C103.865 64.9697 103.482 65.3525 103.012 65.3525H82.7162C82.2458 65.3525 81.8632 64.9697 81.8632 64.4992V35.5357C81.8632 35.0654 82.2458 34.6826 82.7162 34.6826H103.012C103.482 34.6826 103.865 35.0654 103.865 35.5357V51.4528C103.865 52.3187 104.567 53.0204 105.433 53.0204ZM69.0077 53.2148C69.0077 53.8904 68.4581 54.4402 67.7826 54.4402H39.2176C38.5419 54.4402 37.9923 53.8904 37.9923 53.2148V3.16782H69.0077V53.2148Z" fill="#FF8767"/>
</g>
<defs>
<clipPath id="clip0">
<rect width="107" height="74" fill="white"/>
</clipPath>
</defs>
</svg>
