<svg width="118" height="118" viewBox="0 0 118 118" fill="none" xmlns="http://www.w3.org/2000/svg">
<path d="M100.719 17.2808C89.5756 6.13692 74.7595 0 59 0C48.3023 0 37.8241 2.89307 28.6975 8.36625C27.606 9.02101 27.2518 10.4365 27.9063 11.528C28.5611 12.6198 29.9766 12.9735 31.0681 12.3192C36.8312 8.86291 43.1806 6.52365 49.7801 5.3932C47.6937 8.06318 45.7921 11.7004 44.1207 16.263C43.1 19.0499 42.1903 22.1238 41.4003 25.4249C37.8183 24.1994 34.3525 22.597 31.0649 20.6235C29.9736 19.9687 28.5578 20.3218 27.9026 21.4133C27.2474 22.5046 27.6012 23.9204 28.6924 24.5756C32.4168 26.8114 36.3502 28.6106 40.4185 29.9612C39.1341 36.5477 38.2928 43.8538 37.96 51.4932C35.4228 52.2152 33.4055 54.1848 32.6208 56.6953H4.65662C5.12586 45.2456 9.09361 34.479 16.2031 25.429C16.9895 24.4281 16.8155 22.9791 15.8145 22.1928C14.8136 21.4066 13.3647 21.5806 12.5785 22.5813C4.34964 33.0564 0 45.6496 0 59C0 74.7595 6.13692 89.5756 17.2808 100.719C28.4244 111.863 43.2405 118 59 118C74.7595 118 89.5756 111.863 100.719 100.719C111.863 89.5756 118 74.7595 118 59C118 43.2405 111.863 28.4244 100.719 17.2808ZM113.338 56.6953H80.1865C80.0897 49.2108 79.5212 42.0034 78.4903 35.2142C80.9904 33.9036 82.701 31.2838 82.701 28.2707C82.701 28.1854 82.6973 28.1008 82.6945 28.0162C87.6438 25.8517 92.2532 23.0234 96.4392 19.5822C106.355 29.0043 112.728 42.1175 113.338 56.6953ZM44.1133 101.717C45.7861 106.288 47.6895 109.932 49.7785 112.605C40.5646 111.025 32.1359 107.12 25.1183 101.516C30.0589 97.5613 35.5611 94.55 41.394 92.5498C42.1836 95.8524 43.0928 98.9285 44.1133 101.717ZM48.442 100.133C47.4561 97.4387 46.5789 94.4544 45.8186 91.2417C52.658 89.5357 59.8504 89.1725 67.0459 90.2453C67.2077 92.8681 68.664 95.1458 70.7834 96.4445C67.5974 106.946 63.1482 113.391 59 113.391C55.4268 113.391 51.48 108.435 48.442 100.133ZM74.8652 86.5318C76.6445 86.5318 78.0918 87.9791 78.0918 89.7584C78.0918 91.5376 76.6445 92.9849 74.8652 92.9849C73.086 92.9849 71.6387 91.5376 71.6387 89.7584C71.6387 87.9794 73.086 86.5318 74.8652 86.5318ZM75.2543 97.5846C77.6959 97.4645 79.8459 96.2212 81.2004 94.3624C85.3919 96.2313 89.3154 98.6203 92.9114 101.492C85.8833 107.112 77.437 111.028 68.2026 112.608C70.912 109.155 73.3015 104.097 75.2543 97.5846ZM73.9514 81.9775C71.4815 82.2658 69.3589 83.7062 68.1374 85.7468C60.422 84.5511 52.4358 84.9022 44.8635 86.7646C43.6757 80.5585 42.8925 73.6762 42.572 66.464C44.973 65.664 46.861 63.7331 47.5992 61.3049H75.5769C75.481 68.511 74.9367 75.4481 73.9514 81.9775ZM75.2633 20.4449C73.3087 13.9182 70.9164 8.84977 68.2033 5.39182C77.4375 6.97237 85.8835 10.8878 92.9114 16.5082C89.311 19.3833 85.382 21.7747 81.1847 23.6447C79.8307 21.8005 77.6915 20.567 75.2633 20.4449ZM71.6387 28.2707C71.6387 26.4915 73.086 25.0441 74.8652 25.0441C76.6445 25.0441 78.0918 26.4915 78.0918 28.2707C78.0918 30.0499 76.6445 31.4972 74.8652 31.4972C73.086 31.4975 71.6387 30.0499 71.6387 28.2707ZM48.4487 17.8487C51.4853 9.55869 55.4298 4.60938 59 4.60938C63.1524 4.60938 67.6041 11.0634 70.791 21.5799C68.6755 22.8729 67.2194 25.1407 67.0482 27.7535C59.9143 28.8127 52.7068 28.4504 45.8243 26.7332C46.5851 23.5228 47.4625 20.5408 48.4487 17.8487ZM59.0025 32.9614C62.0376 32.9614 65.0864 32.7254 68.1208 32.2539C69.34 34.3103 71.4718 35.7634 73.9549 36.0522C74.9374 42.5717 75.4813 49.4971 75.5767 56.6953H47.5823C46.8315 54.2936 44.9525 52.3869 42.5694 51.5939C42.8884 44.3636 43.6722 37.4636 44.8621 31.243C49.4763 32.3813 54.2235 32.9614 59.0025 32.9614ZM40.1013 55.8027C41.8806 55.8027 43.3279 57.2501 43.3279 59.0293C43.3279 60.8085 41.8806 62.2558 40.1013 62.2558C38.3221 62.2558 36.8748 60.8085 36.8748 59.0293C36.8748 57.2501 38.3221 55.8027 40.1013 55.8027ZM4.66169 61.3047H32.6035C33.3756 63.8438 35.4046 65.8389 37.9626 66.5661C38.2972 74.1847 39.1371 81.4707 40.4185 88.0407C33.5281 90.3166 27.2149 93.8065 21.5885 98.4438C11.6576 89.0199 5.27312 75.8959 4.66169 61.3047ZM96.4394 98.4178C92.2534 94.9766 87.6445 92.1486 82.6954 89.984C82.6975 89.9089 82.7012 89.834 82.7012 89.7584C82.7012 86.7441 80.9893 84.1234 78.4875 82.8132C79.5209 76.0151 80.0897 68.7963 80.1868 61.3045H113.339C112.728 75.8825 106.355 88.9957 96.4394 98.4178Z" fill="#FF8767"/>
<path d="M21.5122 18.7715C22.1206 18.7715 22.713 18.5249 23.1439 18.0962C23.5726 17.6675 23.8192 17.0729 23.8192 16.4668C23.8192 15.8607 23.5726 15.2661 23.1439 14.8374C22.713 14.4087 22.1206 14.1621 21.5122 14.1621C20.9061 14.1621 20.3115 14.4087 19.8828 14.8374C19.4541 15.2661 19.2075 15.8607 19.2075 16.4668C19.2075 17.0729 19.4541 17.6675 19.8828 18.0962C20.3115 18.5249 20.9061 18.7715 21.5122 18.7715Z" fill="#FF8767"/>
</svg>
